<?xml version="1.0" encoding="utf-8"?>
<!-- Generator: Adobe Illustrator 18.1.1, SVG Export Plug-In . SVG Version: 6.00 Build 0)  -->
<svg version="1.1" xmlns="http://www.w3.org/2000/svg" xmlns:xlink="http://www.w3.org/1999/xlink" x="0px" y="0px"
	 viewBox="0 0 600 150" enable-background="new 0 0 600 150" xml:space="preserve">
<g id="Layer_1">
</g>
<g id="REFER">
	<g>
		<g>
			<g id="XMLID_1_">
				<g>
					<path fill="#414042" d="M540,75h-31.7c1.1-3.1,1.7-6.5,1.7-10c0-3-0.5-6-1.3-8.7l16.7-16.6C534.4,48.7,540,61.2,540,75z"/>
					<path fill="#414042" d="M351.7,75c3.2,9,10.5,16,19.6,18.7l-16.6,16.7c-3.9-3.9-7.2-8.5-9.6-13.5c3.2-6.6,5-14,5-21.8H351.7z"
						/>
					<path fill="#E6E7E8" d="M121.2,86.2l24.2,24.2c-9.1,9.1-21.6,14.6-35.4,14.6V93.3C114.3,91.8,118.1,89.3,121.2,86.2z"/>
					<path fill="#414042" d="M235.4,39.6l-16.6,16.7C216,47.2,209,39.9,200,36.7V25C213.8,25,226.3,30.6,235.4,39.6z"/>
					<path fill="#E6E7E8" d="M110,93.3V125c-13.8,0-26.3-5.6-35.3-14.6l16.7-16.7C94.1,94.5,97,95,100,95
						C103.5,95,106.9,94.4,110,93.3z"/>
					<path fill="#E6E7E8" d="M200,93.3V125c-13.8,0-26.3-5.6-35.4-14.6l16.7-16.7c2.8,0.8,5.7,1.3,8.7,1.3
						C193.5,95,196.9,94.4,200,93.3z"/>
					<path fill="#414042" d="M155,53.2c-3.2,6.6-5,14-5,21.8h-21.7c1.1-3.1,1.7-6.5,1.7-10c0-3-0.4-5.9-1.3-8.7l16.6-16.7
						C149.3,43.6,152.6,48.1,155,53.2z"/>
					<path fill="#414042" d="M350,75c0,7.8-1.8,15.2-5,21.8c-3.2-6.6-5-14-5-21.8H350z"/>
					<path fill="#414042" d="M91.3,93.7l-16.7,16.7C65.6,101.3,60,88.8,60,75h11.7C74.9,83.9,82.2,90.9,91.3,93.7z"/>
					<path fill="#414042" d="M74.7,39.6l4.1,4.1C73.4,49.2,70,56.7,70,65c0,3.5,0.6,6.9,1.7,10H60C60,61.2,65.6,48.7,74.7,39.6z"/>
					<path fill="#414042" d="M160,75c0-7.8-1.8-15.2-5-21.8c2.4-5,5.7-9.6,9.6-13.5l4.1,4.1c-5.4,5.4-8.8,12.9-8.8,21.2
						c0,3.5,0.6,6.9,1.7,10H160z"/>
					<path fill="#E6E7E8" d="M161.7,75c3.1,9,10.4,16,19.6,18.7l-16.7,16.7c-3.9-3.9-7.2-8.5-9.6-13.5c3.2-6.6,5-14,5-21.8H161.7z"
						/>
					<path fill="#414042" d="M235.4,39.6c9,9,14.6,21.5,14.6,35.3h-31.7c1.1-3.1,1.7-6.5,1.7-10c0-3-0.4-5.9-1.3-8.7L235.4,39.6z"/>
					<path fill="#414042" d="M540,75c0,13.8-5.6,26.3-14.6,35.4l-24.2-24.2c3.1-3.1,5.6-6.9,7.1-11.2H540z"/>
					<path fill="#E6E7E8" d="M160,75c0,7.8-1.8,15.2-5,21.8c-3.2-6.6-5-14-5-21.8H160z"/>
					<path fill="#414042" d="M490,93.3V125c-13.8,0-26.3-5.6-35.4-14.6l16.6-16.7c2.8,0.8,5.7,1.3,8.7,1.3
						C483.5,95,486.9,94.4,490,93.3z"/>
					<path fill="#414042" d="M501.2,86.2l24.2,24.2c-9,9-21.6,14.6-35.4,14.6V93.3C494.3,91.8,498.1,89.3,501.2,86.2z"/>
					<path fill="#414042" d="M160,75h-10c0-7.8,1.8-15.2,5-21.8C158.2,59.8,160,67.2,160,75z"/>
					<path fill="#E6E7E8" d="M401.2,86.2l24.2,24.2c-9.1,9.1-21.6,14.6-35.4,14.6V93.3C394.3,91.8,398.1,89.3,401.2,86.2z"/>
					<path fill="#414042" d="M311.2,86.2l24.2,24.2c-9.1,9.1-21.6,14.6-35.4,14.6V93.3C304.3,91.8,308.1,89.3,311.2,86.2z"/>
					<path fill="#E6E7E8" d="M211.2,86.2l24.1,24.2c-9.1,9.1-21.6,14.6-35.4,14.6V93.3C204.3,91.8,208.1,89.3,211.2,86.2z"/>
					<path fill="#E6E7E8" d="M264.7,39.6l4.1,4.1c-5.4,5.4-8.8,12.9-8.8,21.2c0,3.5,0.6,6.9,1.7,10H250
						C250,61.2,255.6,48.7,264.7,39.6z"/>
					<path fill="#414042" d="M390,93.3V125c-13.8,0-26.3-5.6-35.4-14.6l16.6-16.7c2.8,0.8,5.7,1.3,8.7,1.3
						C383.5,95,386.9,94.4,390,93.3z"/>
					<path fill="#E6E7E8" d="M300,93.3V125c-13.8,0-26.3-5.6-35.4-14.6l16.6-16.7c2.8,0.8,5.7,1.3,8.7,1.3
						C293.5,95,296.9,94.4,300,93.3z"/>
					<path fill="#414042" d="M350,75h-10c0-7.8,1.8-15.2,5-21.8C348.2,59.8,350,67.2,350,75z"/>
					<path fill="#E6E7E8" d="M440,75h-31.7c1.1-3.1,1.7-6.5,1.7-10c0-3-0.5-5.9-1.3-8.7l16.7-16.7C434.4,48.7,440,61.2,440,75z"/>
					<path fill="#E6E7E8" d="M281.3,93.7l-16.6,16.7c-9-9-14.6-21.5-14.6-35.4h11.7C264.9,83.9,272.2,90.9,281.3,93.7z"/>
					<path fill="#414042" d="M345,53.2c-3.2,6.6-5,14-5,21.8h-21.7c1.1-3.1,1.7-6.5,1.7-10c0-3-0.5-5.9-1.3-8.7l16.7-16.7
						C339.3,43.6,342.6,48.1,345,53.2z"/>
					<path fill="#414042" d="M200,25v11.7c-3.1-1.1-6.5-1.7-10-1.7c-8.3,0-15.8,3.4-21.2,8.8l-4.1-4.1C173.7,30.6,186.2,25,200,25z"
						/>
					<path fill="#414042" d="M110,25v11.7c-3.1-1.1-6.5-1.7-10-1.7c-8.3,0-15.8,3.4-21.2,8.8l-4.1-4.1C83.7,30.6,96.2,25,110,25z"/>
					<path fill="#E6E7E8" d="M150,75c0,7.8,1.8,15.2,5,21.8c-2.4,5.1-5.7,9.6-9.6,13.5l-24.2-24.2c3.1-3.1,5.6-6.9,7.1-11.2H150z"/>
					<path fill="#E6E7E8" d="M390,25c13.8,0,26.3,5.6,35.4,14.6l-16.7,16.7C406,47.2,399,39.9,390,36.7V25z"/>
					<path fill="#414042" d="M335.4,39.6l-16.7,16.7C316,47.2,309,39.9,300,36.7V25C313.8,25,326.3,30.6,335.4,39.6z"/>
					<path fill="#414042" d="M350,75c0-7.8-1.8-15.2-5-21.8c2.5-5,5.7-9.6,9.6-13.5l4.1,4.1c-5.4,5.4-8.8,12.9-8.8,21.2
						c0,3.5,0.6,6.9,1.7,10H350z"/>
					<path fill="#414042" d="M340,75c0,7.8,1.8,15.2,5,21.8c-2.5,5.1-5.7,9.6-9.6,13.5l-24.2-24.2c3.1-3.1,5.6-6.9,7.1-11.2H340z"/>
					<path fill="#E6E7E8" d="M300,25v11.7c-3.1-1.1-6.5-1.7-10-1.7c-8.3,0-15.8,3.4-21.2,8.8l-4.1-4.1C273.7,30.6,286.2,25,300,25z"
						/>
					<path fill="#414042" d="M390,25v11.7c-3.1-1.1-6.5-1.7-10-1.7c-8.3,0-15.8,3.4-21.2,8.8l-4.1-4.1C363.7,30.6,376.2,25,390,25z"
						/>
					<path fill="#E6E7E8" d="M408.3,75H440v0c0,13.8-5.6,26.3-14.6,35.3l-24.2-24.2C404.4,83.1,406.8,79.3,408.3,75z"/>
					<path fill="#414042" d="M250,75c0,13.8-5.6,26.3-14.6,35.4l-24.1-24.2c3.1-3.1,5.6-6.9,7.1-11.2H250z"/>
					<path fill="#E6E7E8" d="M471.3,93.7l-16.6,16.7c-9-9.1-14.6-21.6-14.6-35.4h11.7C454.9,83.9,462.2,90.9,471.3,93.7z"/>
					<path fill="#414042" d="M110,25c13.8,0,26.3,5.6,35.4,14.6l-16.6,16.7C126,47.2,119,39.9,110,36.7V25z"/>
					<path fill="#E6E7E8" d="M440,75c0-13.8,5.6-26.3,14.6-35.3l4.1,4.1c-5.4,5.4-8.8,12.9-8.8,21.2c0,3.5,0.6,6.9,1.7,10L440,75
						L440,75z"/>
					<path fill="#414042" d="M490,25c13.8,0,26.3,5.6,35.4,14.7l-16.7,16.6C506,47.2,499,39.9,490,36.7V25z"/>
					<path fill="#414042" d="M490,25v11.7c-3.1-1.1-6.5-1.7-10-1.7c-8.3,0-15.8,3.4-21.2,8.8l-4.1-4.1C463.7,30.6,476.2,25,490,25z"
						/>
				</g>
				<g>
					<path fill="none" stroke="#6D6E71" stroke-width="0.1" stroke-miterlimit="10" d="M508.7,56.3C509.6,59,510,62,510,65
						c0,3.5-0.6,6.9-1.7,10c-1.5,4.3-3.9,8.1-7.1,11.2s-6.9,5.6-11.2,7.1c-3.1,1.1-6.5,1.7-10,1.7c-3,0-6-0.4-8.7-1.3
						c-9.1-2.8-16.4-9.8-19.6-18.7c-1.1-3.1-1.7-6.5-1.7-10c0-8.3,3.4-15.8,8.8-21.2S471.7,35,480,35c3.5,0,6.9,0.6,10,1.7
						C499,39.9,506,47.2,508.7,56.3z"/>
					<path fill="none" stroke="#6D6E71" stroke-width="0.1" stroke-miterlimit="10" d="M440,75c0-13.8,5.6-26.3,14.6-35.3
						C463.7,30.6,476.2,25,490,25c13.8,0,26.3,5.6,35.4,14.7c9,9,14.6,21.5,14.6,35.3c0,13.8-5.6,26.3-14.6,35.4
						c-9,9-21.6,14.6-35.4,14.6c-13.8,0-26.3-5.6-35.4-14.6C445.6,101.3,440,88.8,440,75"/>
					<polyline fill="none" stroke="#6D6E71" stroke-width="0.1" stroke-miterlimit="10" points="490,75 501.2,86.2 525.4,110.4 
											"/>
					<polyline fill="none" stroke="#6D6E71" stroke-width="0.1" stroke-miterlimit="10" points="454.7,39.7 458.8,43.8 490,75 					
						"/>
					<polyline fill="none" stroke="#6D6E71" stroke-width="0.1" stroke-miterlimit="10" points="490,25 490,36.7 490,75 490,75 
						490,93.3 490,125 					"/>
					<polyline fill="none" stroke="#6D6E71" stroke-width="0.1" stroke-miterlimit="10" points="525.4,39.7 508.7,56.3 490,75 
						490,75 490,75 471.3,93.7 454.7,110.4 					"/>
					<polyline fill="none" stroke="#6D6E71" stroke-width="0.1" stroke-miterlimit="10" points="540,75 508.3,75 490,75 490,75 
						451.7,75 440,75 					"/>
					<path fill="none" stroke="#6D6E71" stroke-width="0.1" stroke-miterlimit="10" d="M318.7,56.3C319.6,59,320,62,320,65
						c0,3.5-0.6,6.9-1.7,10c-1.5,4.3-4,8.1-7.1,11.2c-3.1,3.1-6.9,5.6-11.2,7.1c-3.1,1.1-6.5,1.7-10,1.7c-3,0-6-0.4-8.7-1.3
						c-9.1-2.8-16.4-9.8-19.6-18.7c-1.1-3.1-1.7-6.5-1.7-10c0-8.3,3.4-15.8,8.8-21.2c5.4-5.4,12.9-8.8,21.2-8.8
						c3.5,0,6.9,0.6,10,1.7C309,39.9,316,47.2,318.7,56.3z"/>
					<path fill="none" stroke="#6D6E71" stroke-width="0.1" stroke-miterlimit="10" d="M350,75c0,7.8-1.8,15.2-5,21.8
						c-2.5,5.1-5.7,9.6-9.6,13.5c-9.1,9.1-21.6,14.6-35.4,14.6c-13.8,0-26.3-5.6-35.4-14.6c-9-9-14.6-21.5-14.6-35.4
						s5.6-26.3,14.6-35.3c9.1-9,21.6-14.6,35.4-14.6c13.8,0,26.3,5.6,35.4,14.6c3.9,3.9,7.2,8.5,9.6,13.5
						C348.2,59.8,350,67.2,350,75z"/>
					<polyline fill="none" stroke="#6D6E71" stroke-width="0.1" stroke-miterlimit="10" points="300,75 311.2,86.2 335.4,110.3 
											"/>
					<polyline fill="none" stroke="#6D6E71" stroke-width="0.1" stroke-miterlimit="10" points="264.7,39.6 268.8,43.8 300,75 					
						"/>
					<polyline fill="none" stroke="#6D6E71" stroke-width="0.1" stroke-miterlimit="10" points="300,25 300,36.7 300,75 300,75 
						300,93.3 300,125 					"/>
					<polyline fill="none" stroke="#6D6E71" stroke-width="0.1" stroke-miterlimit="10" points="335.4,39.6 318.7,56.3 300,75 
						300,75 300,75 281.3,93.7 264.7,110.3 					"/>
					<polyline fill="none" stroke="#6D6E71" stroke-width="0.1" stroke-miterlimit="10" points="340,75 318.3,75 300,75 300,75 
						261.7,75 250,75 					"/>
					<path fill="none" stroke="#6D6E71" stroke-width="0.1" stroke-miterlimit="10" d="M408.7,56.3C409.6,59,410,62,410,65
						c0,3.5-0.6,6.9-1.7,10c-1.5,4.3-4,8.1-7.1,11.2c-3.1,3.1-6.9,5.6-11.2,7.1c-3.1,1.1-6.5,1.7-10,1.7c-3,0-6-0.4-8.7-1.3
						c-9.1-2.8-16.4-9.8-19.6-18.7c-1.1-3.1-1.7-6.5-1.7-10c0-8.3,3.4-15.8,8.8-21.2c5.4-5.4,12.9-8.8,21.2-8.8
						c3.5,0,6.9,0.6,10,1.7C399,39.9,406,47.2,408.7,56.3z"/>
					<path fill="none" stroke="#6D6E71" stroke-width="0.1" stroke-miterlimit="10" d="M440,75L440,75c0,13.8-5.6,26.3-14.6,35.4
						c-9.1,9.1-21.6,14.6-35.4,14.6c-13.8,0-26.3-5.6-35.4-14.6c-3.9-3.9-7.2-8.5-9.6-13.5c-3.2-6.6-5-14-5-21.8s1.8-15.2,5-21.8
						c2.5-5,5.7-9.6,9.6-13.5c9.1-9,21.6-14.6,35.4-14.6c13.8,0,26.3,5.6,35.4,14.6C434.4,48.7,440,61.2,440,75z"/>
					<polyline fill="none" stroke="#6D6E71" stroke-width="0.1" stroke-miterlimit="10" points="390,75 401.2,86.2 425.4,110.3 
											"/>
					<polyline fill="none" stroke="#6D6E71" stroke-width="0.1" stroke-miterlimit="10" points="354.7,39.6 358.8,43.8 390,75 					
						"/>
					<polyline fill="none" stroke="#6D6E71" stroke-width="0.1" stroke-miterlimit="10" points="390,25 390,36.7 390,75 390,75 
						390,93.3 390,125 					"/>
					<polyline fill="none" stroke="#6D6E71" stroke-width="0.1" stroke-miterlimit="10" points="425.4,39.6 408.7,56.3 390,75 
						390,75 390,75 371.3,93.7 354.7,110.3 					"/>
					<polyline fill="none" stroke="#6D6E71" stroke-width="0.1" stroke-miterlimit="10" points="440,75 408.3,75 390,75 390,75 
						351.7,75 350,75 340,75 					"/>
					<path fill="none" stroke="#6D6E71" stroke-width="0.1" stroke-miterlimit="10" d="M128.7,56.3C129.6,59,130,62,130,65
						c0,3.5-0.6,6.9-1.7,10c-1.5,4.3-3.9,8.1-7.1,11.2c-3.1,3.1-6.9,5.6-11.2,7.1c-3.1,1.1-6.5,1.7-10,1.7c-3,0-5.9-0.4-8.7-1.3
						c-9.1-2.8-16.4-9.8-19.6-18.7c-1.1-3.1-1.7-6.5-1.7-10c0-8.3,3.4-15.8,8.8-21.2C84.2,38.3,91.7,35,100,35c3.5,0,6.9,0.6,10,1.7
						C119,39.9,126,47.2,128.7,56.3z"/>
					<path fill="none" stroke="#6D6E71" stroke-width="0.1" stroke-miterlimit="10" d="M160,75c0,7.8-1.8,15.2-5,21.8
						c-2.4,5.1-5.7,9.6-9.6,13.5c-9.1,9.1-21.6,14.6-35.4,14.6c-13.8,0-26.3-5.6-35.3-14.6S60,88.8,60,75s5.6-26.3,14.7-35.3
						C83.7,30.6,96.2,25,110,25c13.8,0,26.3,5.6,35.4,14.6c3.9,3.9,7.2,8.5,9.6,13.5C158.2,59.8,160,67.2,160,75z"/>
					<polyline fill="none" stroke="#6D6E71" stroke-width="0.1" stroke-miterlimit="10" points="110,75 121.2,86.2 145.4,110.3 
											"/>
					<polyline fill="none" stroke="#6D6E71" stroke-width="0.1" stroke-miterlimit="10" points="74.7,39.6 78.8,43.8 110,75 					
						"/>
					<polyline fill="none" stroke="#6D6E71" stroke-width="0.1" stroke-miterlimit="10" points="110,25 110,36.7 110,75 110,75 
						110,93.3 110,125 					"/>
					<polyline fill="none" stroke="#6D6E71" stroke-width="0.1" stroke-miterlimit="10" points="145.4,39.6 128.7,56.3 110,75 
						110,75 110,75 91.3,93.7 74.7,110.3 					"/>
					<polyline fill="none" stroke="#6D6E71" stroke-width="0.1" stroke-miterlimit="10" points="150,75 128.3,75 110,75 110,75 
						71.7,75 60,75 					"/>
					<path fill="none" stroke="#6D6E71" stroke-width="0.1" stroke-miterlimit="10" d="M218.7,56.3C219.6,59,220,62,220,65
						c0,3.5-0.6,6.9-1.7,10c-1.5,4.3-3.9,8.1-7.1,11.2c-3.1,3.1-7,5.6-11.2,7.1c-3.1,1.1-6.5,1.7-10,1.7c-3,0-5.9-0.4-8.7-1.3
						c-9.1-2.8-16.4-9.8-19.6-18.7c-1.1-3.1-1.7-6.5-1.7-10c0-8.3,3.4-15.8,8.8-21.2c5.4-5.4,12.9-8.8,21.2-8.8
						c3.5,0,6.9,0.6,10,1.7C209,39.9,216,47.2,218.7,56.3z"/>
					<path fill="none" stroke="#6D6E71" stroke-width="0.1" stroke-miterlimit="10" d="M250,75c0,13.8-5.6,26.3-14.6,35.4
						c-9.1,9.1-21.6,14.6-35.4,14.6c-13.8,0-26.3-5.6-35.4-14.6c-3.9-3.9-7.2-8.5-9.6-13.5c-3.2-6.6-5-14-5-21.8s1.8-15.2,5-21.8
						c2.4-5,5.7-9.6,9.6-13.5c9.1-9,21.6-14.6,35.4-14.6c13.8,0,26.3,5.6,35.4,14.6C244.4,48.7,250,61.2,250,75z"/>
					<polyline fill="none" stroke="#6D6E71" stroke-width="0.1" stroke-miterlimit="10" points="200,75 211.2,86.2 235.4,110.3 
											"/>
					<polyline fill="none" stroke="#6D6E71" stroke-width="0.1" stroke-miterlimit="10" points="164.7,39.6 168.8,43.8 200,75 					
						"/>
					<polyline fill="none" stroke="#6D6E71" stroke-width="0.1" stroke-miterlimit="10" points="200,25 200,36.7 200,75 200,75 
						200,93.3 200,125 					"/>
					<polyline fill="none" stroke="#6D6E71" stroke-width="0.1" stroke-miterlimit="10" points="235.4,39.6 218.7,56.3 200,75 
						200,75 200,75 181.3,93.7 164.7,110.3 					"/>
					<polyline fill="none" stroke="#6D6E71" stroke-width="0.1" stroke-miterlimit="10" points="250,75 218.3,75 200,75 200,75 
						161.7,75 160,75 150,75 					"/>
				</g>
			</g>
		</g>
	</g>
</g>
<g id="dim">
</g>
</svg>
