<?xml version="1.0" encoding="utf-8"?>
<!-- Generator: Adobe Illustrator 18.1.1, SVG Export Plug-In . SVG Version: 6.00 Build 0)  -->
<svg version="1.1" xmlns="http://www.w3.org/2000/svg" xmlns:xlink="http://www.w3.org/1999/xlink" x="0px" y="0px"
	 viewBox="0 0 600 300" enable-background="new 0 0 600 300" xml:space="preserve">
<g id="Layer_1">
</g>
<g id="REFER">
	<g>
		<g>
			<g id="XMLID_2_">
				<g>
					<path fill="#6D6E71" d="M371.6,117.5c5.6,5.7,13.4,9.1,22.1,9.1v20.8c-14.4,0-27.4-5.8-36.8-15.2L371.6,117.5z"/>
					<path fill="#6D6E71" d="M341.6,219.5c0,8.1,1.9,15.9,5.2,22.7c-2.5,5.3-6,10-10,14.1l-22.1-22.1v0c3.8-3.8,6.1-9,6.1-14.7v0
						H341.6z"/>
					<path fill="#6D6E71" d="M378.9,234.2l-22.1,22.1c-4.1-4.1-7.5-8.8-10-14.1c3.3-6.9,5.2-14.6,5.2-22.7h20.8v0
						C372.8,225.2,375.2,230.4,378.9,234.2z"/>
					<path fill="#6D6E71" d="M314.7,234.2l22.1,22.1c-9.4,9.4-22.4,15.2-36.8,15.2v-31.2C305.7,240.3,310.9,238,314.7,234.2z"/>
					<path fill="#6D6E71" d="M112.7,43.4V64c-8.7,0-16.5,3.5-22.2,9.3L75.9,58.6C85.3,49.2,98.3,43.4,112.7,43.4z"/>
					<path fill="#6D6E71" d="M518.6,95.4h20.8c0,14.4-5.8,27.4-15.2,36.8l-14.7-14.7C515.1,111.9,518.6,104.1,518.6,95.4z"/>
					<path fill="#6D6E71" d="M502,234.2l22.1,22.1c-9.4,9.4-22.4,15.2-36.8,15.2v-31.2C493.1,240.3,498.3,238,502,234.2z"/>
					<path fill="#6D6E71" d="M352,95.4h-10.4c0-8.1,1.9-15.8,5.2-22.7C350.2,79.6,352,87.3,352,95.4z"/>
					<path fill="#6D6E71" d="M356.9,182.7l22.1,22.1c-3.8,3.8-6.1,9-6.1,14.7H352c0-8.1-1.9-15.9-5.2-22.7
						C349.4,191.5,352.8,186.8,356.9,182.7z"/>
					<path fill="#6D6E71" d="M336.8,132.2c-9.4,9.4-22.4,15.2-36.8,15.2v-20.8h0c8.6,0,16.4-3.5,22.1-9.1L336.8,132.2z"/>
					<path fill="#6D6E71" d="M248,95.4h10.4c0,8.1-1.9,15.9-5.2,22.7C249.8,111.3,248,103.6,248,95.4z"/>
					<path fill="#6D6E71" d="M75.9,182.7l21.9,21.9c-3.6,3.7-5.7,8.8-5.7,14.3c0,0.2,0,0.3,0,0.5H60.6
						C60.6,205.1,66.5,192.1,75.9,182.7z"/>
					<path fill="#6D6E71" d="M331.2,95.4c0-8.6-3.5-16.4-9.1-22.1l14.7-14.7c4.1,4.1,7.5,8.8,10,14.1c-3.3,6.9-5.2,14.6-5.2,22.7
						H331.2z"/>
					<path fill="#6D6E71" d="M524.1,182.7L502,204.8c-3.8-3.8-9-6.1-14.7-6.1v-31.2C501.7,167.5,514.7,173.3,524.1,182.7z"/>
					<path fill="#6D6E71" d="M206.3,167.5v31.2c-5.7,0-10.9,2.3-14.7,6.1h0l-22.1-22.1C179,173.3,192,167.5,206.3,167.5z"/>
					<path fill="#6D6E71" d="M346.8,118.1c3.3-6.9,5.2-14.6,5.2-22.7h10.4c0,8.6,3.5,16.4,9.2,22.1l-14.7,14.7
						C352.8,128.1,349.4,123.4,346.8,118.1z"/>
					<path fill="#6D6E71" d="M253.2,72.7c3.3,6.9,5.2,14.6,5.2,22.7H248C248,87.3,249.8,79.6,253.2,72.7z"/>
					<path fill="#6D6E71" d="M164.7,95.4h-10.4c0-8.1,1.9-15.8,5.2-22.7C162.8,79.6,164.7,87.3,164.7,95.4z"/>
					<path fill="#6D6E71" d="M487.3,43.4v20.8c-8.6,0-16.4,3.5-22.1,9.2l-14.7-14.7C459.9,49.2,473,43.4,487.3,43.4z"/>
					<path fill="#6D6E71" d="M352,219.5c0,8.1-1.9,15.9-5.2,22.7c-3.3-6.9-5.2-14.6-5.2-22.7H352z"/>
					<path fill="#6D6E71" d="M487.3,167.5v31.2c-5.7,0-10.9,2.3-14.7,6.1h0l-22.1-22.1C459.9,173.3,473,167.5,487.3,167.5z"/>
					<path fill="#6D6E71" d="M133.7,219c0-5.7-2.3-10.8-6-14.6l21.7-21.7c4.1,4.1,7.5,8.8,10,14.1c-3.3,6.9-5.2,14.6-5.2,22.7h-20.6
						C133.7,219.3,133.7,219.1,133.7,219z"/>
					<path fill="#6D6E71" d="M228.4,117.5l14.7,14.7c-9.4,9.4-22.4,15.2-36.8,15.2v-20.8C215,126.6,222.8,123.1,228.4,117.5z"/>
					<path fill="#6D6E71" d="M258.4,219.5c0,8.1-1.9,15.9-5.2,22.7c-3.3-6.9-5.2-14.6-5.2-22.7H258.4z"/>
					<path fill="#6D6E71" d="M322.1,117.5c5.7-5.6,9.2-13.4,9.2-22.1h10.4c0,8.1,1.9,15.9,5.2,22.7c-2.5,5.2-6,10-10,14.1
						L322.1,117.5z"/>
					<path fill="#6D6E71" d="M149.5,182.7l-21.7,21.7c-3.8-3.9-9-6.3-14.9-6.3c-0.1,0-0.2,0-0.2,0v-30.7
						C127,167.5,140.1,173.3,149.5,182.7z"/>
					<path fill="#6D6E71" d="M75.9,58.6l14.6,14.6c-5.6,5.6-9,13.4-9,22c0,0.1,0,0.1,0,0.2H60.6C60.6,81.1,66.5,68.1,75.9,58.6z"/>
					<path fill="#6D6E71" d="M393.7,167.5v31.2c-5.7,0-10.9,2.3-14.7,6.1h0l-22.1-22.1C366.3,173.3,379.3,167.5,393.7,167.5z"/>
					<path fill="#6D6E71" d="M352,95.4c0,8.1-1.9,15.9-5.2,22.7c-3.3-6.9-5.2-14.6-5.2-22.7H352z"/>
					<path fill="#6D6E71" d="M112.7,167.5v30.7c-5.8,0.1-11.1,2.5-14.9,6.5l-21.9-21.9C85.3,173.3,98.3,167.5,112.7,167.5z"/>
					<path fill="#6D6E71" d="M206.3,43.4c14.4,0,27.4,5.8,36.8,15.2l-14.7,14.7c-5.6-5.7-13.4-9.2-22.1-9.2V43.4z"/>
					<path fill="#6D6E71" d="M322.1,73.4c-5.7-5.7-13.5-9.1-22.1-9.1h0V43.4c14.4,0,27.4,5.8,36.8,15.2L322.1,73.4z"/>
					<path fill="#6D6E71" d="M112.7,239.8v31.8c-14.4,0-27.4-5.8-36.8-15.2l22.5-22.5C102,237.5,107.1,239.7,112.7,239.8z"/>
					<path fill="#6D6E71" d="M169.5,182.7l22.1,22.1c-3.8,3.8-6.1,9-6.1,14.7h-20.8c0-8.1-1.9-15.9-5.2-22.7
						C162.1,191.5,165.5,186.8,169.5,182.7z"/>
					<path fill="#6D6E71" d="M169.5,58.6l14.7,14.7c-5.7,5.7-9.1,13.5-9.1,22.1h-10.4c0-8.1-1.9-15.8-5.2-22.7
						C162.1,67.5,165.5,62.7,169.5,58.6z"/>
					<path fill="#6D6E71" d="M81.5,95.4c0.1,8.6,3.6,16.4,9.3,22l-14.8,14.8c-9.4-9.4-15.2-22.4-15.2-36.8H81.5z"/>
					<path fill="#6D6E71" d="M487.3,126.6v20.8c-14.4,0-27.4-5.8-36.8-15.2l14.7-14.7C470.9,123.1,478.7,126.6,487.3,126.6z"/>
					<path fill="#6D6E71" d="M336.8,182.7l-22.1,22.1c-3.8-3.8-9-6.1-14.7-6.1v-31.2C314.4,167.5,327.4,173.3,336.8,182.7z"/>
					<path fill="#6D6E71" d="M393.7,64.2c-8.6,0-16.4,3.5-22.1,9.1l-14.7-14.7c9.4-9.4,22.4-15.2,36.8-15.2V64.2z"/>
					<path fill="#6D6E71" d="M98.3,233.8l-22.5,22.5c-9.4-9.4-15.2-22.4-15.2-36.8h31.5C92.2,225.1,94.6,230.2,98.3,233.8z"/>
					<path fill="#6D6E71" d="M149.5,58.6l-14.6,14.6c-5.7-5.7-13.5-9.3-22.2-9.3V43.4C127,43.4,140.1,49.2,149.5,58.6z"/>
					<path fill="#6D6E71" d="M253.2,196.8c-3.3,6.9-5.2,14.6-5.2,22.7h-20.8c0-5.7-2.3-10.9-6.1-14.7l22.1-22.1
						C247.2,186.8,250.6,191.5,253.2,196.8z"/>
					<path fill="#6D6E71" d="M539.4,219.5h-31.2c0-5.7-2.3-10.9-6.1-14.7l22.1-22.1C533.5,192.1,539.4,205.1,539.4,219.5z"/>
					<path fill="#6D6E71" d="M393.7,240.3v31.2c-14.4,0-27.4-5.8-36.8-15.2l22.1-22.1C382.7,238,387.9,240.3,393.7,240.3z"/>
					<path fill="#6D6E71" d="M352,95.4c0-8.1-1.9-15.8-5.2-22.7c2.5-5.3,6-10,10-14.1l14.7,14.7c-5.7,5.7-9.1,13.5-9.1,22.1H352z"/>
					<path fill="#6D6E71" d="M253.2,72.7c-3.3,6.9-5.2,14.6-5.2,22.7h-10.4c0-8.6-3.5-16.4-9.1-22.1l14.7-14.7
						C247.2,62.7,250.6,67.5,253.2,72.7z"/>
					<path fill="#6D6E71" d="M487.3,240.3v31.2c-14.4,0-27.4-5.8-36.8-15.2l22.1-22.1C476.4,238,481.6,240.3,487.3,240.3z"/>
					<path fill="#6D6E71" d="M509.4,117.5l14.7,14.7c-9.4,9.4-22.4,15.2-36.8,15.2v-20.8h0C496,126.6,503.8,123.1,509.4,117.5z"/>
					<path fill="#6D6E71" d="M539.4,95.4h-20.8c0-8.6-3.5-16.4-9.1-22.1l14.7-14.7C533.5,68.1,539.4,81.1,539.4,95.4z"/>
					<path fill="#6D6E71" d="M352,219.5h-10.4c0-8.1,1.9-15.9,5.2-22.7C350.2,203.6,352,211.3,352,219.5z"/>
					<path fill="#6D6E71" d="M248,95.4c0,8.1,1.9,15.9,5.2,22.7c-2.5,5.3-6,10-10,14.1l-14.7-14.7c5.7-5.7,9.1-13.5,9.1-22.1H248z"
						/>
					<path fill="#6D6E71" d="M346.8,196.8c-3.3,6.9-5.2,14.6-5.2,22.7h-20.8c0-5.7-2.3-10.9-6.1-14.7l22.1-22.1
						C340.9,186.8,344.3,191.5,346.8,196.8z"/>
					<path fill="#6D6E71" d="M221.1,234.2l22.1,22.1c-9.4,9.4-22.4,15.2-36.8,15.2v-31.2C212.1,240.3,217.3,238,221.1,234.2z"/>
					<path fill="#6D6E71" d="M143.9,95.2c0-8.6-3.5-16.3-9-22l14.6-14.6c4.1,4.1,7.5,8.8,10,14.1c-3.3,6.9-5.2,14.6-5.2,22.7h-10.4
						C143.9,95.4,143.9,95.3,143.9,95.2z"/>
					<path fill="#6D6E71" d="M206.3,43.4v20.8c-8.6,0-16.4,3.5-22.1,9.1l-14.7-14.7C179,49.2,192,43.4,206.3,43.4z"/>
					<path fill="#6D6E71" d="M258.4,219.5H248c0-8.1,1.9-15.9,5.2-22.7C256.5,203.6,258.4,211.3,258.4,219.5z"/>
					<path fill="#6D6E71" d="M248,219.5c0,8.1,1.9,15.9,5.2,22.7c-2.5,5.3-6,10-10,14.1l-22.1-22.1v0c3.8-3.8,6.1-9,6.1-14.7v0H248z
						"/>
					<path fill="#6D6E71" d="M164.7,219.5h-10.4c0-8.1,1.9-15.9,5.2-22.7C162.8,203.6,164.7,211.3,164.7,219.5z"/>
					<path fill="#6D6E71" d="M524.1,58.6l-14.7,14.7c-5.7-5.7-13.5-9.1-22.1-9.1h0V43.4C501.7,43.4,514.7,49.2,524.1,58.6z"/>
					<path fill="#6D6E71" d="M206.3,167.5c14.4,0,27.4,5.8,36.8,15.2l-22.1,22.1c-3.8-3.8-9-6.1-14.7-6.1V167.5z"/>
					<path fill="#6D6E71" d="M508.1,219.5h31.2c0,14.4-5.8,27.4-15.2,36.8L502,234.2v0C505.8,230.4,508.1,225.2,508.1,219.5
						L508.1,219.5z"/>
					<path fill="#6D6E71" d="M112.7,126.4v21c-14.4,0-27.4-5.8-36.8-15.2l14.8-14.8C96.3,123,104.1,126.4,112.7,126.4z"/>
				</g>
				<g>
					<path fill="none" stroke="#6D6E71" stroke-width="0.1" stroke-miterlimit="10" d="M134.9,73.2c5.6,5.6,9,13.4,9,22
						c0,0.1,0,0.1,0,0.2c-0.1,8.6-3.6,16.4-9.3,22c-5.6,5.6-13.4,9-22,9s-16.3-3.5-22-9c-5.7-5.6-9.2-13.4-9.3-22c0-0.1,0-0.1,0-0.2
						c0-8.6,3.5-16.3,9-22c5.7-5.7,13.5-9.3,22.2-9.3S129.2,67.5,134.9,73.2z"/>
					<path fill="none" stroke="#6D6E71" stroke-width="0.1" stroke-miterlimit="10" d="M164.7,95.4c0,8.1-1.9,15.9-5.2,22.7
						c-2.5,5.3-6,10-10,14.1c-9.4,9.4-22.4,15.2-36.8,15.2s-27.4-5.8-36.8-15.2c-9.4-9.4-15.2-22.4-15.2-36.8
						c0-14.4,5.8-27.4,15.2-36.8c9.4-9.4,22.4-15.2,36.8-15.2s27.4,5.8,36.8,15.2c4.1,4.1,7.5,8.8,10,14.1
						C162.8,79.6,164.7,87.3,164.7,95.4z"/>
					<polyline fill="none" stroke="#6D6E71" stroke-width="0.1" stroke-miterlimit="10" points="112.7,95.4 134.6,117.4 
						149.5,132.2 					"/>
					<polyline fill="none" stroke="#6D6E71" stroke-width="0.1" stroke-miterlimit="10" points="75.9,58.6 90.5,73.2 112.7,95.4 
											"/>
					<polyline fill="none" stroke="#6D6E71" stroke-width="0.1" stroke-miterlimit="10" points="112.7,43.4 112.7,64 112.7,95.4 
						112.7,95.4 112.7,126.4 112.7,147.5 					"/>
					<polyline fill="none" stroke="#6D6E71" stroke-width="0.1" stroke-miterlimit="10" points="158.6,49.5 149.5,58.6 134.9,73.2 
						112.7,95.4 112.7,95.4 112.7,95.4 90.7,117.4 75.9,132.2 67.2,140.9 					"/>
					<polyline fill="none" stroke="#6D6E71" stroke-width="0.1" stroke-miterlimit="10" points="154.3,95.4 143.9,95.4 112.7,95.4 
						112.7,95.4 81.5,95.4 60.6,95.4 					"/>
					<path fill="none" stroke="#6D6E71" stroke-width="0.1" stroke-miterlimit="10" d="M237.6,95.4c0,8.6-3.5,16.4-9.1,22.1
						c-5.6,5.7-13.4,9.1-22.1,9.1s-16.4-3.5-22.1-9.1c-5.7-5.6-9.2-13.4-9.2-22.1c0-8.6,3.5-16.4,9.1-22.1
						c5.6-5.7,13.4-9.1,22.1-9.1s16.4,3.5,22.1,9.2C234.1,79,237.6,86.8,237.6,95.4z"/>
					<path fill="none" stroke="#6D6E71" stroke-width="0.1" stroke-miterlimit="10" d="M258.4,95.4c0,8.1-1.9,15.9-5.2,22.7
						c-2.5,5.3-6,10-10,14.1c-9.4,9.4-22.4,15.2-36.8,15.2s-27.4-5.8-36.8-15.2c-4.1-4.1-7.5-8.8-10-14.1
						c-3.3-6.9-5.2-14.6-5.2-22.7s1.9-15.8,5.2-22.7c2.5-5.3,6-10,10-14.1c9.4-9.4,22.4-15.2,36.8-15.2s27.4,5.8,36.8,15.2
						c4.1,4.1,7.5,8.8,10,14.1C256.5,79.6,258.4,87.3,258.4,95.4z"/>
					<polyline fill="none" stroke="#6D6E71" stroke-width="0.1" stroke-miterlimit="10" points="206.3,95.4 228.4,117.5 
						243.1,132.2 					"/>
					<polyline fill="none" stroke="#6D6E71" stroke-width="0.1" stroke-miterlimit="10" points="169.5,58.6 184.3,73.4 206.3,95.4 
											"/>
					<polyline fill="none" stroke="#6D6E71" stroke-width="0.1" stroke-miterlimit="10" points="206.3,43.4 206.3,64.2 206.3,95.4 
						206.3,95.4 206.3,126.6 206.3,147.5 					"/>
					<polyline fill="none" stroke="#6D6E71" stroke-width="0.1" stroke-miterlimit="10" points="243.1,58.6 228.4,73.4 206.3,95.4 
						206.3,95.4 206.3,95.4 184.3,117.5 169.5,132.2 					"/>
					<polyline fill="none" stroke="#6D6E71" stroke-width="0.1" stroke-miterlimit="10" points="248,95.4 237.6,95.4 206.3,95.4 
						206.3,95.4 175.1,95.4 164.7,95.4 154.3,95.4 					"/>
					<path fill="none" stroke="#6D6E71" stroke-width="0.1" stroke-miterlimit="10" d="M277.9,73.4c5.6-5.7,13.4-9.2,22.1-9.2h0
						c8.6,0,16.4,3.5,22.1,9.1s9.1,13.5,9.1,22.1c0,8.6-3.5,16.4-9.2,22.1c-5.7,5.7-13.4,9.1-22.1,9.1h0c-8.6,0-16.4-3.5-22.1-9.1
						l0,0c-5.6-5.7-9.1-13.4-9.1-22.1S272.3,79,277.9,73.4"/>
					<path fill="none" stroke="#6D6E71" stroke-width="0.1" stroke-miterlimit="10" d="M352,95.4c0,8.1-1.9,15.9-5.2,22.7
						c-2.5,5.2-6,10-10,14.1c-9.4,9.4-22.4,15.2-36.8,15.2c-7.9,0-15.4-1.8-22.1-4.9c-5.5-2.6-10.5-6.1-14.7-10.3
						c-4.1-4.1-7.5-8.8-10-14.1c-3.3-6.9-5.2-14.6-5.2-22.7s1.9-15.8,5.2-22.7c2.5-5.3,6-10,10-14.1c4.2-4.2,9.2-7.8,14.7-10.3
						c6.7-3.1,14.2-4.9,22.1-4.9c14.4,0,27.4,5.8,36.8,15.2c4.1,4.1,7.5,8.8,10,14.1C350.2,79.6,352,87.3,352,95.4z"/>
					<polyline fill="none" stroke="#6D6E71" stroke-width="0.1" stroke-miterlimit="10" points="300,95.4 322.1,117.5 336.8,132.2 
											"/>
					<polyline fill="none" stroke="#6D6E71" stroke-width="0.1" stroke-miterlimit="10" points="277.9,73.4 277.9,73.4 300,95.4 
											"/>
					<line fill="none" stroke="#6D6E71" stroke-width="0.1" stroke-miterlimit="10" x1="263.2" y1="58.6" x2="277.9" y2="73.4"/>
					<polyline fill="none" stroke="#6D6E71" stroke-width="0.1" stroke-miterlimit="10" points="300,43.4 300,64.2 300,95.4 
						300,95.4 300,126.6 300,147.5 					"/>
					<polyline fill="none" stroke="#6D6E71" stroke-width="0.1" stroke-miterlimit="10" points="336.8,58.6 322.1,73.4 300,95.4 
						300,95.4 300,95.4 277.9,117.5 277.9,117.5 263.2,132.2 					"/>
					<polyline fill="none" stroke="#6D6E71" stroke-width="0.1" stroke-miterlimit="10" points="341.6,95.4 331.2,95.4 300,95.4 
						300,95.4 277.9,95.4 268.8,95.4 258.4,95.4 248,95.4 					"/>
					<path fill="none" stroke="#6D6E71" stroke-width="0.1" stroke-miterlimit="10" d="M424.9,95.4c0,8.6-3.5,16.4-9.1,22.1
						c-5.6,5.7-13.4,9.1-22.1,9.1c-8.6,0-16.4-3.5-22.1-9.1c-5.7-5.6-9.2-13.4-9.2-22.1c0-8.6,3.5-16.4,9.1-22.1
						c5.6-5.7,13.4-9.1,22.1-9.1c8.6,0,16.4,3.5,22.1,9.2C421.4,79,424.9,86.8,424.9,95.4z"/>
					<path fill="none" stroke="#6D6E71" stroke-width="0.1" stroke-miterlimit="10" d="M445.7,95.4c0,8.1-1.9,15.9-5.2,22.7
						c-2.5,5.2-6,10-10,14.1c-9.4,9.4-22.4,15.2-36.8,15.2c-14.4,0-27.4-5.8-36.8-15.2c-4.1-4.1-7.5-8.8-10-14.1
						c-3.3-6.9-5.2-14.6-5.2-22.7s1.9-15.8,5.2-22.7c2.5-5.3,6-10,10-14.1c9.4-9.4,22.4-15.2,36.8-15.2c14.4,0,27.4,5.8,36.8,15.2
						c4.1,4.1,7.5,8.8,10,14.1C443.8,79.6,445.7,87.3,445.7,95.4z"/>
					<polyline fill="none" stroke="#6D6E71" stroke-width="0.1" stroke-miterlimit="10" points="393.7,95.4 415.7,117.5 
						430.5,132.2 					"/>
					<polyline fill="none" stroke="#6D6E71" stroke-width="0.1" stroke-miterlimit="10" points="356.9,58.6 371.6,73.4 393.7,95.4 
											"/>
					<polyline fill="none" stroke="#6D6E71" stroke-width="0.1" stroke-miterlimit="10" points="393.7,43.4 393.7,64.2 393.7,95.4 
						393.7,95.4 393.7,126.6 393.7,147.5 					"/>
					<polyline fill="none" stroke="#6D6E71" stroke-width="0.1" stroke-miterlimit="10" points="430.5,58.6 415.7,73.4 393.7,95.4 
						393.7,95.4 393.7,95.4 371.6,117.5 356.9,132.2 					"/>
					<polyline fill="none" stroke="#6D6E71" stroke-width="0.1" stroke-miterlimit="10" points="435.3,95.4 424.9,95.4 393.7,95.4 
						393.7,95.4 362.4,95.4 352,95.4 341.6,95.4 					"/>
					<path fill="none" stroke="#6D6E71" stroke-width="0.1" stroke-miterlimit="10" d="M518.6,95.4c0,8.6-3.5,16.4-9.2,22.1
						c-5.7,5.7-13.4,9.1-22.1,9.1h0c-8.6,0-16.4-3.5-22.1-9.1s-9.1-13.5-9.1-22.1s3.5-16.4,9.1-22.1c5.6-5.7,13.4-9.2,22.1-9.2h0
						c8.6,0,16.4,3.5,22.1,9.1S518.6,86.8,518.6,95.4z"/>
					<path fill="none" stroke="#6D6E71" stroke-width="0.1" stroke-miterlimit="10" d="M539.4,95.4c0,14.4-5.8,27.4-15.2,36.8
						c-9.4,9.4-22.4,15.2-36.8,15.2s-27.4-5.8-36.8-15.2c-4.1-4.1-7.5-8.8-10-14.1c-3.3-6.9-5.2-14.6-5.2-22.7s1.9-15.8,5.2-22.7
						c2.5-5.3,6-10,10-14.1c9.4-9.4,22.4-15.2,36.8-15.2s27.4,5.8,36.8,15.2C533.5,68.1,539.4,81.1,539.4,95.4z"/>
					<polyline fill="none" stroke="#6D6E71" stroke-width="0.1" stroke-miterlimit="10" points="487.3,95.4 509.4,117.5 
						524.1,132.2 					"/>
					<polyline fill="none" stroke="#6D6E71" stroke-width="0.1" stroke-miterlimit="10" points="450.5,58.6 465.3,73.4 487.3,95.4 
											"/>
					<polyline fill="none" stroke="#6D6E71" stroke-width="0.1" stroke-miterlimit="10" points="487.3,43.4 487.3,64.2 487.3,95.4 
						487.3,95.4 487.3,126.6 487.3,147.5 					"/>
					<polyline fill="none" stroke="#6D6E71" stroke-width="0.1" stroke-miterlimit="10" points="524.1,58.6 509.4,73.4 487.3,95.4 
						487.3,95.4 487.3,95.4 465.3,117.5 450.5,132.2 					"/>
					<polyline fill="none" stroke="#6D6E71" stroke-width="0.1" stroke-miterlimit="10" points="539.4,95.4 518.6,95.4 487.3,95.4 
						487.3,95.4 456.1,95.4 445.7,95.4 435.3,95.4 					"/>
					<line fill="none" stroke="#6D6E71" stroke-width="0.1" stroke-miterlimit="10" x1="277.9" y1="73.4" x2="277.9" y2="73.4"/>
					<path fill="none" stroke="#6D6E71" stroke-width="0.1" stroke-miterlimit="10" d="M127.8,204.4c3.7,3.7,6,8.9,6,14.6
						c0,0.2,0,0.3,0,0.5c-0.1,5.7-2.6,10.9-6.5,14.6c-3.7,3.6-8.8,5.7-14.3,5.7c-0.1,0-0.2,0-0.2,0c-5.6-0.1-10.6-2.3-14.3-5.9
						c-3.7-3.7-6.1-8.7-6.2-14.3c0-0.2,0-0.3,0-0.5c0-5.6,2.2-10.6,5.7-14.3c3.7-3.9,9-6.4,14.9-6.5c0.1,0,0.2,0,0.2,0
						C118.7,198.2,124,200.5,127.8,204.4z"/>
					<path fill="none" stroke="#6D6E71" stroke-width="0.1" stroke-miterlimit="10" d="M164.7,219.5c0,8.1-1.9,15.9-5.2,22.7
						c-2.5,5.3-6,10-10,14.1c-9.4,9.4-22.4,15.2-36.8,15.2s-27.4-5.8-36.8-15.2c-9.4-9.4-15.2-22.4-15.2-36.8
						c0-14.4,5.8-27.4,15.2-36.8c9.4-9.4,22.4-15.2,36.8-15.2s27.4,5.8,36.8,15.2c4.1,4.1,7.5,8.8,10,14.1
						C162.8,203.6,164.7,211.3,164.7,219.5z"/>
					<polyline fill="none" stroke="#6D6E71" stroke-width="0.1" stroke-miterlimit="10" points="112.7,219.5 127.2,234 149.5,256.3 
											"/>
					<polyline fill="none" stroke="#6D6E71" stroke-width="0.1" stroke-miterlimit="10" points="75.9,182.7 97.8,204.6 112.7,219.5 
											"/>
					<polyline fill="none" stroke="#6D6E71" stroke-width="0.1" stroke-miterlimit="10" points="112.7,167.5 112.7,198.2 
						112.7,219.5 112.7,219.5 112.7,239.8 112.7,271.5 					"/>
					<polyline fill="none" stroke="#6D6E71" stroke-width="0.1" stroke-miterlimit="10" points="158.6,173.6 149.5,182.7 
						127.8,204.4 112.7,219.5 112.7,219.5 112.7,219.5 98.3,233.8 75.9,256.3 67.2,265 					"/>
					<polyline fill="none" stroke="#6D6E71" stroke-width="0.1" stroke-miterlimit="10" points="154.3,219.5 133.7,219.5 
						112.7,219.5 112.7,219.5 92.1,219.5 60.6,219.5 					"/>
					<path fill="none" stroke="#6D6E71" stroke-width="0.1" stroke-miterlimit="10" d="M191.6,204.8c3.8-3.8,9-6.1,14.7-6.1
						c5.8,0,11,2.3,14.7,6.1c3.8,3.8,6.1,9,6.1,14.7v0c0,5.7-2.3,10.9-6.1,14.7"/>
					<path fill="none" stroke="#6D6E71" stroke-width="0.1" stroke-miterlimit="10" d="M221.1,234.2c-3.8,3.8-9,6.1-14.7,6.1
						c-5.8,0-11-2.3-14.7-6.1c-3.8-3.8-6.1-9-6.1-14.7v0c0-5.7,2.3-10.9,6.1-14.7"/>
					<path fill="none" stroke="#6D6E71" stroke-width="0.1" stroke-miterlimit="10" d="M258.4,219.5c0,8.1-1.9,15.9-5.2,22.7
						c-2.5,5.3-6,10-10,14.1c-9.4,9.4-22.4,15.2-36.8,15.2s-27.4-5.8-36.8-15.2c-4.1-4.1-7.5-8.8-10-14.1
						c-3.3-6.9-5.2-14.6-5.2-22.7s1.9-15.9,5.2-22.7c2.5-5.2,6-10,10-14.1c9.4-9.4,22.4-15.2,36.8-15.2s27.4,5.8,36.8,15.2
						c4.1,4.1,7.5,8.8,10,14.1C256.5,203.6,258.4,211.3,258.4,219.5z"/>
					<polyline fill="none" stroke="#6D6E71" stroke-width="0.1" stroke-miterlimit="10" points="206.3,219.5 221.1,234.2 
						221.1,234.2 243.1,256.3 					"/>
					<polyline fill="none" stroke="#6D6E71" stroke-width="0.1" stroke-miterlimit="10" points="169.5,182.7 191.6,204.8 
						191.6,204.8 206.3,219.5 					"/>
					<polyline fill="none" stroke="#6D6E71" stroke-width="0.1" stroke-miterlimit="10" points="206.3,167.5 206.3,198.7 
						206.3,219.5 206.3,219.5 206.3,240.3 206.3,271.5 					"/>
					<polyline fill="none" stroke="#6D6E71" stroke-width="0.1" stroke-miterlimit="10" points="243.1,182.7 221.1,204.8 
						206.3,219.5 206.3,219.5 206.3,219.5 191.6,234.2 169.5,256.3 					"/>
					<polyline fill="none" stroke="#6D6E71" stroke-width="0.1" stroke-miterlimit="10" points="248,219.5 227.2,219.5 206.3,219.5 
						206.3,219.5 185.5,219.5 164.7,219.5 154.3,219.5 					"/>
					<path fill="none" stroke="#6D6E71" stroke-width="0.1" stroke-miterlimit="10" d="M285.3,204.8c3.8-3.8,9-6.1,14.7-6.1
						s10.9,2.3,14.7,6.1c3.8,3.8,6.1,9,6.1,14.7v0c0,5.7-2.3,10.9-6.1,14.7"/>
					<path fill="none" stroke="#6D6E71" stroke-width="0.1" stroke-miterlimit="10" d="M314.7,234.2c-3.8,3.8-9,6.1-14.7,6.1
						c-5.8,0-11-2.3-14.7-6.1c-3.8-3.8-6.1-9-6.1-14.7v0c0-5.7,2.3-10.9,6.1-14.7"/>
					<path fill="none" stroke="#6D6E71" stroke-width="0.1" stroke-miterlimit="10" d="M352,219.5c0,8.1-1.9,15.9-5.2,22.7
						c-2.5,5.3-6,10-10,14.1c-9.4,9.4-22.4,15.2-36.8,15.2s-27.4-5.8-36.8-15.2c-4.1-4.1-7.5-8.8-10-14.1
						c-3.3-6.9-5.2-14.6-5.2-22.7s1.9-15.9,5.2-22.7c2.5-5.2,6-10,10-14.1c9.4-9.4,22.4-15.2,36.8-15.2s27.4,5.8,36.8,15.2
						c4.1,4.1,7.5,8.8,10,14.1C350.2,203.6,352,211.3,352,219.5z"/>
					<polyline fill="none" stroke="#6D6E71" stroke-width="0.1" stroke-miterlimit="10" points="300,219.5 314.7,234.2 314.7,234.2 
						336.8,256.3 					"/>
					<polyline fill="none" stroke="#6D6E71" stroke-width="0.1" stroke-miterlimit="10" points="263.2,182.7 285.3,204.8 
						285.3,204.8 300,219.5 					"/>
					<polyline fill="none" stroke="#6D6E71" stroke-width="0.1" stroke-miterlimit="10" points="300,167.5 300,198.7 300,219.5 
						300,219.5 300,240.3 300,271.5 					"/>
					<polyline fill="none" stroke="#6D6E71" stroke-width="0.1" stroke-miterlimit="10" points="336.8,182.7 314.7,204.8 300,219.5 
						300,219.5 300,219.5 285.3,234.2 263.2,256.3 					"/>
					<polyline fill="none" stroke="#6D6E71" stroke-width="0.1" stroke-miterlimit="10" points="341.6,219.5 320.8,219.5 300,219.5 
						300,219.5 279.2,219.5 258.4,219.5 248,219.5 					"/>
					<path fill="none" stroke="#6D6E71" stroke-width="0.1" stroke-miterlimit="10" d="M379,204.8c3.8-3.8,9-6.1,14.7-6.1
						c5.8,0,11,2.3,14.7,6.1c3.8,3.8,6.1,9,6.1,14.7v0c0,5.7-2.3,10.9-6.1,14.7"/>
					<path fill="none" stroke="#6D6E71" stroke-width="0.1" stroke-miterlimit="10" d="M408.4,234.2c-3.8,3.8-9,6.1-14.7,6.1
						c-5.8,0-11-2.3-14.7-6.1c-3.8-3.8-6.1-9-6.1-14.7v0c0-5.7,2.3-10.9,6.1-14.7"/>
					<path fill="none" stroke="#6D6E71" stroke-width="0.1" stroke-miterlimit="10" d="M445.7,219.5c0,8.1-1.9,15.9-5.2,22.7
						c-2.5,5.3-6,10-10,14.1c-9.4,9.4-22.4,15.2-36.8,15.2c-14.4,0-27.4-5.8-36.8-15.2c-4.1-4.1-7.5-8.8-10-14.1
						c-3.3-6.9-5.2-14.6-5.2-22.7s1.9-15.9,5.2-22.7c2.5-5.2,6-10,10-14.1c9.4-9.4,22.4-15.2,36.8-15.2c14.4,0,27.4,5.8,36.8,15.2
						c4.1,4.1,7.5,8.8,10,14.1C443.8,203.6,445.7,211.3,445.7,219.5z"/>
					<polyline fill="none" stroke="#6D6E71" stroke-width="0.1" stroke-miterlimit="10" points="393.7,219.5 408.4,234.2 
						408.4,234.2 430.5,256.3 					"/>
					<polyline fill="none" stroke="#6D6E71" stroke-width="0.1" stroke-miterlimit="10" points="356.9,182.7 378.9,204.8 379,204.8 
						393.7,219.5 					"/>
					<polyline fill="none" stroke="#6D6E71" stroke-width="0.1" stroke-miterlimit="10" points="393.7,167.5 393.7,198.7 
						393.7,219.5 393.7,219.5 393.7,240.3 393.7,271.5 					"/>
					<polyline fill="none" stroke="#6D6E71" stroke-width="0.1" stroke-miterlimit="10" points="430.5,182.7 408.4,204.8 
						393.7,219.5 393.7,219.5 393.7,219.5 378.9,234.2 356.9,256.3 					"/>
					<polyline fill="none" stroke="#6D6E71" stroke-width="0.1" stroke-miterlimit="10" points="435.3,219.5 414.5,219.5 
						393.7,219.5 393.7,219.5 372.8,219.5 352,219.5 341.6,219.5 					"/>
					<path fill="none" stroke="#6D6E71" stroke-width="0.1" stroke-miterlimit="10" d="M472.6,204.8c3.8-3.8,9-6.1,14.7-6.1
						s10.9,2.3,14.7,6.1s6.1,9,6.1,14.7v0c0,5.7-2.3,10.9-6.1,14.7"/>
					<path fill="none" stroke="#6D6E71" stroke-width="0.1" stroke-miterlimit="10" d="M502,234.2c-3.8,3.8-9,6.1-14.7,6.1
						c-5.8,0-11-2.3-14.7-6.1c-3.8-3.8-6.1-9-6.1-14.7v0c0-5.7,2.3-10.9,6.1-14.7"/>
					<path fill="none" stroke="#6D6E71" stroke-width="0.1" stroke-miterlimit="10" d="M539.4,219.5c0,14.4-5.8,27.4-15.2,36.8
						c-9.4,9.4-22.4,15.2-36.8,15.2s-27.4-5.8-36.8-15.2c-4.1-4.1-7.5-8.8-10-14.1c-3.3-6.9-5.2-14.6-5.2-22.7s1.9-15.9,5.2-22.7
						c2.5-5.2,6-10,10-14.1c9.4-9.4,22.4-15.2,36.8-15.2s27.4,5.8,36.8,15.2C533.5,192.1,539.4,205.1,539.4,219.5z"/>
					<polyline fill="none" stroke="#6D6E71" stroke-width="0.1" stroke-miterlimit="10" points="487.3,219.5 502,234.2 502,234.2 
						524.1,256.3 					"/>
					<polyline fill="none" stroke="#6D6E71" stroke-width="0.1" stroke-miterlimit="10" points="450.5,182.7 472.6,204.8 
						472.6,204.8 487.3,219.5 					"/>
					<polyline fill="none" stroke="#6D6E71" stroke-width="0.1" stroke-miterlimit="10" points="487.3,167.5 487.3,198.7 
						487.3,219.5 487.3,219.5 487.3,240.3 487.3,271.5 					"/>
					<polyline fill="none" stroke="#6D6E71" stroke-width="0.1" stroke-miterlimit="10" points="524.1,182.7 502,204.8 487.3,219.5 
						487.3,219.5 487.3,219.5 472.6,234.2 450.5,256.3 					"/>
					<polyline fill="none" stroke="#6D6E71" stroke-width="0.1" stroke-miterlimit="10" points="539.4,219.5 508.1,219.5 
						487.3,219.5 487.3,219.5 466.5,219.5 445.7,219.5 435.3,219.5 					"/>
				</g>
			</g>
		</g>
	</g>
</g>
<g id="dim">
</g>
</svg>
