<?xml version="1.0" encoding="utf-8"?>
<!-- Generator: Adobe Illustrator 18.1.1, SVG Export Plug-In . SVG Version: 6.00 Build 0)  -->
<svg version="1.1" xmlns="http://www.w3.org/2000/svg" xmlns:xlink="http://www.w3.org/1999/xlink" x="0px" y="0px"
	 viewBox="0 0 600 150" enable-background="new 0 0 600 150" xml:space="preserve">
<g id="Layer_1">
</g>
<g id="REFER">
	<g>
		<g>
			<g id="XMLID_1_">
				<g>
					<path fill="#414042" d="M390,105v20c-13.8,0-26.3-5.6-35.3-14.6l14.1-14.1C374.2,101.6,381.7,105,390,105z"/>
					<path fill="#E6E7E8" d="M300,105v20c-13.8,0-26.3-5.6-35.3-14.6l14.1-14.1C284.2,101.6,291.7,105,300,105z"/>
					<path fill="#E6E7E8" d="M178.8,96.2L178.8,96.2l-14.1,14.2c-3.9-3.9-7.2-8.5-9.6-13.5c3.2-6.6,5-14,5-21.8h10v0
						C170,83.3,173.4,90.8,178.8,96.2z"/>
					<path fill="#E6E7E8" d="M440,75c0-13.8,5.6-26.3,14.7-35.3l14.1,14.1c-5.4,5.4-8.8,12.9-8.8,21.2v0L440,75L440,75z"/>
					<path fill="#414042" d="M164.7,39.6l14.1,14.2c-5.4,5.4-8.8,12.9-8.8,21.2h-10c0-7.8-1.8-15.2-5-21.8
						C157.5,48.1,160.7,43.6,164.7,39.6z"/>
					<path fill="#E6E7E8" d="M440,75h-20c0-8.3-3.4-15.8-8.8-21.2l14.1-14.2C434.4,48.7,440,61.2,440,75z"/>
					<path fill="#414042" d="M511.2,96.2l14.2,14.2c-9,9-21.6,14.6-35.4,14.6v-20C498.3,105,505.8,101.6,511.2,96.2z"/>
					<path fill="#414042" d="M250,75h-20c0-8.3-3.4-15.8-8.8-21.2l14.1-14.2C244.4,48.7,250,61.2,250,75z"/>
					<path fill="#E6E7E8" d="M460,75c0,8.3,3.4,15.8,8.8,21.2l-14.1,14.2C445.6,101.3,440,88.8,440,75H460z"/>
					<path fill="#E6E7E8" d="M411.2,96.2l14.1,14.1c-9.1,9.1-21.6,14.6-35.4,14.6v-20C398.3,105,405.8,101.6,411.2,96.2z"/>
					<path fill="#414042" d="M321.2,96.2l14.1,14.1c-9.1,9.1-21.6,14.6-35.4,14.6v-20C308.3,105,315.8,101.6,321.2,96.2z"/>
					<path fill="#E6E7E8" d="M131.2,96.2l14.2,14.1c-9.1,9.1-21.6,14.6-35.4,14.6v-20C118.3,105,125.8,101.6,131.2,96.2z"/>
					<path fill="#414042" d="M155,53.2c-3.2,6.6-5,14-5,21.8h-10c0-8.3-3.4-15.8-8.8-21.2l14.2-14.2C149.3,43.6,152.6,48.1,155,53.2
						z"/>
					<path fill="#414042" d="M490,25v20c-8.3,0-15.8,3.4-21.2,8.8l-14.1-14.1C463.7,30.6,476.2,25,490,25z"/>
					<path fill="#E6E7E8" d="M278.8,96.2l-14.1,14.1c-9.1-9-14.7-21.5-14.7-35.4h20v0C270,83.3,273.4,90.8,278.8,96.2z"/>
					<path fill="#E6E7E8" d="M300,25v20c-8.3,0-15.8,3.4-21.2,8.8h0l-14.1-14.2C273.7,30.6,286.2,25,300,25z"/>
					<path fill="#414042" d="M390,25v20c-8.3,0-15.8,3.4-21.2,8.8h0l-14.1-14.2C363.7,30.6,376.2,25,390,25z"/>
					<path fill="#414042" d="M340,75c0,7.8,1.8,15.2,5,21.8c-2.4,5.1-5.7,9.6-9.6,13.5l-14.1-14.1v0c5.4-5.4,8.8-12.9,8.8-21.2v0
						H340z"/>
					<path fill="#E6E7E8" d="M200,105v20c-13.8,0-26.3-5.6-35.4-14.6l14.1-14.1C184.2,101.6,191.7,105,200,105z"/>
					<path fill="#E6E7E8" d="M264.7,39.6l14.1,14.2c-5.4,5.4-8.8,12.9-8.8,21.2h-20C250,61.2,255.6,48.7,264.7,39.6z"/>
					<path fill="#414042" d="M368.8,96.2l-14.1,14.1c-3.9-3.9-7.2-8.5-9.7-13.5c3.2-6.6,5-14,5-21.8h10v0
						C360,83.3,363.4,90.8,368.8,96.2z"/>
					<path fill="#414042" d="M350,75h-10c0-7.8,1.8-15.2,5-21.8C348.2,59.8,350,67.2,350,75z"/>
					<path fill="#414042" d="M340,75h10c0,7.8-1.8,15.2-5,21.8C341.8,90.2,340,82.8,340,75z"/>
					<path fill="#414042" d="M354.7,39.6l14.1,14.2c-5.4,5.4-8.8,12.9-8.8,21.2h-10c0-7.8-1.8-15.2-5-21.8
						C347.5,48.1,350.7,43.6,354.7,39.6z"/>
					<path fill="#414042" d="M145.4,39.6l-14.2,14.2c-5.4-5.4-12.9-8.8-21.2-8.8V25C123.8,25,136.3,30.6,145.4,39.6z"/>
					<path fill="#E6E7E8" d="M440,75c0,13.8-5.6,26.3-14.6,35.3l-14.1-14.1v0c5.4-5.4,8.8-12.9,8.8-21.2v0L440,75L440,75z"/>
					<path fill="#414042" d="M110,25v20c-8.3,0-15.8,3.4-21.2,8.8h0L74.7,39.6C83.7,30.6,96.2,25,110,25z"/>
					<path fill="#414042" d="M230,75h20c0,13.8-5.6,26.3-14.6,35.4l-14.1-14.1C226.7,90.8,230,83.3,230,75L230,75z"/>
					<path fill="#414042" d="M74.7,39.6l14.1,14.2C83.4,59.2,80,66.7,80,75H60C60,61.2,65.6,48.7,74.7,39.6z"/>
					<path fill="#414042" d="M540,75c0,13.8-5.6,26.3-14.6,35.4l-14.2-14.2c5.4-5.4,8.8-12.9,8.8-21.2H540z"/>
					<path fill="#414042" d="M540,75h-20v0c0-8.3-3.4-15.8-8.8-21.2l14.1-14.1C534.4,48.7,540,61.2,540,75z"/>
					<path fill="#414042" d="M200,25v20c-8.3,0-15.8,3.4-21.2,8.8l-14.1-14.2C173.7,30.6,186.2,25,200,25z"/>
					<path fill="#E6E7E8" d="M150,75c0,7.8,1.8,15.2,5,21.8c-2.4,5.1-5.7,9.6-9.6,13.5l-14.2-14.1v0c5.4-5.4,8.8-12.9,8.8-21.2v0
						H150z"/>
					<path fill="#E6E7E8" d="M221.2,96.2l14.1,14.1c-9.1,9.1-21.6,14.6-35.4,14.6v-20h0C208.3,105,215.8,101.6,221.2,96.2z"/>
					<path fill="#414042" d="M88.8,96.2l-14.1,14.1c-9-9-14.6-21.5-14.6-35.4h20v0C80,83.3,83.4,90.8,88.8,96.2z"/>
					<path fill="#414042" d="M525.4,39.7l-14.1,14.1c-5.4-5.4-12.9-8.8-21.2-8.8V25C503.8,25,516.3,30.6,525.4,39.7z"/>
					<path fill="#414042" d="M490,105v20c-13.8,0-26.3-5.6-35.3-14.6l14.1-14.2C474.2,101.6,481.7,105,490,105z"/>
					<path fill="#E6E7E8" d="M110,105v20c-13.8,0-26.3-5.6-35.3-14.6l14.1-14.1C94.2,101.6,101.7,105,110,105z"/>
					<path fill="#414042" d="M160,75h-10c0-7.8,1.8-15.2,5-21.8C158.2,59.8,160,67.2,160,75z"/>
					<path fill="#414042" d="M200,25c13.8,0,26.3,5.6,35.4,14.6l-14.1,14.2h0c-5.4-5.4-12.9-8.8-21.2-8.8h0V25z"/>
					<path fill="#E6E7E8" d="M390,25c13.8,0,26.3,5.6,35.4,14.6l-14.1,14.2c-5.4-5.4-12.9-8.8-21.2-8.8V25z"/>
					<path fill="#414042" d="M335.4,39.6l-14.1,14.2c-5.4-5.4-12.9-8.8-21.2-8.8V25C313.8,25,326.3,30.6,335.4,39.6z"/>
					<path fill="#414042" d="M345,53.2c-3.2,6.6-5,14-5,21.8h-10c0-8.3-3.4-15.8-8.8-21.2l14.1-14.2C339.3,43.6,342.6,48.1,345,53.2
						z"/>
					<path fill="#E6E7E8" d="M150,75h10c0,7.8-1.8,15.2-5,21.8C151.8,90.2,150,82.8,150,75z"/>
				</g>
				<g>
					<path fill="none" stroke="#6D6E71" stroke-width="0.1" stroke-miterlimit="10" d="M511.2,53.8c5.4,5.4,8.8,12.9,8.8,21.2v0
						c0,8.3-3.4,15.8-8.8,21.2c-5.4,5.4-12.9,8.8-21.2,8.8c-8.3,0-15.8-3.4-21.2-8.8c-5.4-5.4-8.8-12.9-8.8-21.2v0
						c0-8.3,3.4-15.8,8.8-21.2c5.4-5.4,12.9-8.8,21.2-8.8C498.3,45,505.8,48.3,511.2,53.8z"/>
					<path fill="none" stroke="#6D6E71" stroke-width="0.1" stroke-miterlimit="10" d="M440,75c0-13.8,5.6-26.3,14.7-35.3
						c9-9.1,21.5-14.7,35.3-14.7s26.3,5.6,35.4,14.7S540,61.2,540,75c0,13.8-5.6,26.3-14.6,35.4c-9,9-21.6,14.6-35.4,14.6
						s-26.3-5.6-35.3-14.6C445.6,101.3,440,88.8,440,75"/>
					<polyline fill="none" stroke="#6D6E71" stroke-width="0.1" stroke-miterlimit="10" points="490,75 511.2,96.2 525.4,110.4 
											"/>
					<polyline fill="none" stroke="#6D6E71" stroke-width="0.1" stroke-miterlimit="10" points="454.7,39.7 468.8,53.8 490,75 					
						"/>
					<polyline fill="none" stroke="#6D6E71" stroke-width="0.1" stroke-miterlimit="10" points="490,25 490,45 490,75 490,75 
						490,105 490,125 					"/>
					<polyline fill="none" stroke="#6D6E71" stroke-width="0.1" stroke-miterlimit="10" points="525.4,39.7 511.2,53.8 490,75 
						490,75 490,75 468.8,96.2 454.7,110.4 					"/>
					<polyline fill="none" stroke="#6D6E71" stroke-width="0.1" stroke-miterlimit="10" points="540,75 520,75 490,75 490,75 
						460,75 440,75 					"/>
					<path fill="none" stroke="#6D6E71" stroke-width="0.1" stroke-miterlimit="10" d="M278.8,53.8c5.4-5.4,12.9-8.8,21.2-8.8
						c8.3,0,15.8,3.4,21.2,8.8c5.4,5.4,8.8,12.9,8.8,21.2v0c0,8.3-3.3,15.8-8.8,21.2"/>
					<path fill="none" stroke="#6D6E71" stroke-width="0.1" stroke-miterlimit="10" d="M321.2,96.2c-5.4,5.4-12.9,8.8-21.2,8.8
						c-8.3,0-15.8-3.4-21.2-8.8c-5.4-5.4-8.8-12.9-8.8-21.2v0c0-8.3,3.4-15.8,8.8-21.2"/>
					<path fill="none" stroke="#6D6E71" stroke-width="0.1" stroke-miterlimit="10" d="M350,75c0,7.8-1.8,15.2-5,21.8
						c-2.4,5.1-5.7,9.6-9.6,13.5c-9.1,9.1-21.6,14.6-35.4,14.6s-26.3-5.6-35.3-14.6c-9.1-9-14.7-21.5-14.7-35.4s5.6-26.3,14.7-35.3
						c9-9,21.5-14.6,35.3-14.6s26.3,5.6,35.4,14.6c3.9,3.9,7.2,8.5,9.6,13.5C348.2,59.8,350,67.2,350,75z"/>
					<polyline fill="none" stroke="#6D6E71" stroke-width="0.1" stroke-miterlimit="10" points="300,75 321.2,96.2 321.2,96.2 
						335.4,110.3 					"/>
					<polyline fill="none" stroke="#6D6E71" stroke-width="0.1" stroke-miterlimit="10" points="264.7,39.6 278.8,53.8 278.8,53.8 
						300,75 					"/>
					<polyline fill="none" stroke="#6D6E71" stroke-width="0.1" stroke-miterlimit="10" points="300,25 300,45 300,75 300,75 
						300,105 300,125 					"/>
					<polyline fill="none" stroke="#6D6E71" stroke-width="0.1" stroke-miterlimit="10" points="335.4,39.6 321.2,53.8 300,75 
						300,75 300,75 278.8,96.2 264.7,110.3 					"/>
					<polyline fill="none" stroke="#6D6E71" stroke-width="0.1" stroke-miterlimit="10" points="340,75 330,75 300,75 300,75 
						270,75 250,75 					"/>
					<path fill="none" stroke="#6D6E71" stroke-width="0.1" stroke-miterlimit="10" d="M368.8,53.8c5.4-5.4,12.9-8.8,21.2-8.8
						c8.3,0,15.8,3.4,21.2,8.8c5.4,5.4,8.8,12.9,8.8,21.2v0c0,8.3-3.3,15.8-8.8,21.2"/>
					<path fill="none" stroke="#6D6E71" stroke-width="0.1" stroke-miterlimit="10" d="M411.2,96.2c-5.4,5.4-12.9,8.8-21.2,8.8
						c-8.3,0-15.8-3.4-21.2-8.8c-5.4-5.4-8.8-12.9-8.8-21.2v0c0-8.3,3.4-15.8,8.8-21.2"/>
					<path fill="none" stroke="#6D6E71" stroke-width="0.1" stroke-miterlimit="10" d="M440,75L440,75c0,13.8-5.6,26.3-14.6,35.4
						c-9.1,9.1-21.6,14.6-35.4,14.6s-26.3-5.6-35.3-14.6c-3.9-3.9-7.2-8.5-9.7-13.5c-3.2-6.6-5-14-5-21.8s1.8-15.2,5-21.8
						c2.5-5,5.7-9.6,9.7-13.5c9-9,21.5-14.6,35.3-14.6s26.3,5.6,35.4,14.6C434.4,48.7,440,61.2,440,75z"/>
					<polyline fill="none" stroke="#6D6E71" stroke-width="0.1" stroke-miterlimit="10" points="390,75 411.2,96.2 411.2,96.2 
						425.4,110.3 					"/>
					<polyline fill="none" stroke="#6D6E71" stroke-width="0.1" stroke-miterlimit="10" points="354.7,39.6 368.8,53.8 368.8,53.8 
						390,75 					"/>
					<polyline fill="none" stroke="#6D6E71" stroke-width="0.1" stroke-miterlimit="10" points="390,25 390,45 390,75 390,75 
						390,105 390,125 					"/>
					<polyline fill="none" stroke="#6D6E71" stroke-width="0.1" stroke-miterlimit="10" points="425.4,39.6 411.2,53.8 390,75 
						390,75 390,75 368.8,96.2 354.7,110.3 					"/>
					<polyline fill="none" stroke="#6D6E71" stroke-width="0.1" stroke-miterlimit="10" points="440,75 420,75 390,75 390,75 
						360,75 350,75 340,75 					"/>
					<path fill="none" stroke="#6D6E71" stroke-width="0.1" stroke-miterlimit="10" d="M88.8,53.8c5.4-5.4,12.9-8.8,21.2-8.8
						s15.8,3.4,21.2,8.8c5.4,5.4,8.8,12.9,8.8,21.2v0c0,8.3-3.4,15.8-8.8,21.2"/>
					<path fill="none" stroke="#6D6E71" stroke-width="0.1" stroke-miterlimit="10" d="M131.2,96.2c-5.4,5.4-12.9,8.8-21.2,8.8
						s-15.8-3.4-21.2-8.8C83.4,90.8,80,83.3,80,75v0c0-8.3,3.4-15.8,8.8-21.2"/>
					<path fill="none" stroke="#6D6E71" stroke-width="0.1" stroke-miterlimit="10" d="M160,75c0,7.8-1.8,15.2-5,21.8
						c-2.4,5.1-5.7,9.6-9.6,13.5c-9.1,9.1-21.6,14.6-35.4,14.6s-26.3-5.6-35.3-14.6c-9-9-14.6-21.5-14.6-35.4s5.6-26.3,14.6-35.3
						c9-9,21.5-14.6,35.3-14.6s26.3,5.6,35.4,14.6c3.9,3.9,7.2,8.5,9.6,13.5C158.2,59.8,160,67.2,160,75z"/>
					<polyline fill="none" stroke="#6D6E71" stroke-width="0.1" stroke-miterlimit="10" points="110,75 131.2,96.2 131.2,96.2 
						145.4,110.3 					"/>
					<polyline fill="none" stroke="#6D6E71" stroke-width="0.1" stroke-miterlimit="10" points="74.7,39.6 88.8,53.8 88.8,53.8 
						110,75 					"/>
					<polyline fill="none" stroke="#6D6E71" stroke-width="0.1" stroke-miterlimit="10" points="110,25 110,45 110,75 110,75 
						110,105 110,125 					"/>
					<polyline fill="none" stroke="#6D6E71" stroke-width="0.1" stroke-miterlimit="10" points="145.4,39.6 131.2,53.8 110,75 
						110,75 110,75 88.8,96.2 74.7,110.3 					"/>
					<polyline fill="none" stroke="#6D6E71" stroke-width="0.1" stroke-miterlimit="10" points="150,75 140,75 110,75 110,75 80,75 
						60,75 					"/>
					<path fill="none" stroke="#6D6E71" stroke-width="0.1" stroke-miterlimit="10" d="M221.2,53.8c5.4,5.4,8.8,12.9,8.8,21.2v0
						c0,8.3-3.4,15.8-8.8,21.2c-5.4,5.4-12.9,8.8-21.2,8.8h0c-8.3,0-15.8-3.4-21.2-8.8"/>
					<path fill="none" stroke="#6D6E71" stroke-width="0.1" stroke-miterlimit="10" d="M178.8,96.2c-5.4-5.4-8.8-12.9-8.8-21.2v0
						c0-8.3,3.4-15.8,8.8-21.2c5.4-5.4,12.9-8.8,21.2-8.8h0c8.3,0,15.8,3.4,21.2,8.8"/>
					<path fill="none" stroke="#6D6E71" stroke-width="0.1" stroke-miterlimit="10" d="M250,75c0,13.8-5.6,26.3-14.6,35.4
						c-9.1,9.1-21.6,14.6-35.4,14.6s-26.3-5.6-35.4-14.6c-3.9-3.9-7.2-8.5-9.6-13.5c-3.2-6.6-5-14-5-21.8s1.8-15.2,5-21.8
						c2.4-5,5.7-9.6,9.6-13.5c9-9,21.5-14.6,35.4-14.6s26.3,5.6,35.4,14.6C244.4,48.7,250,61.2,250,75z"/>
					<polyline fill="none" stroke="#6D6E71" stroke-width="0.1" stroke-miterlimit="10" points="200,75 221.2,96.2 235.4,110.3 
											"/>
					<polyline fill="none" stroke="#6D6E71" stroke-width="0.1" stroke-miterlimit="10" points="164.7,39.6 178.8,53.8 200,75 					
						"/>
					<polyline fill="none" stroke="#6D6E71" stroke-width="0.1" stroke-miterlimit="10" points="200,25 200,45 200,75 200,75 
						200,105 200,125 					"/>
					<polyline fill="none" stroke="#6D6E71" stroke-width="0.1" stroke-miterlimit="10" points="235.4,39.6 221.2,53.8 221.2,53.8 
						200,75 200,75 200,75 178.8,96.2 178.8,96.2 164.7,110.3 					"/>
					<polyline fill="none" stroke="#6D6E71" stroke-width="0.1" stroke-miterlimit="10" points="250,75 230,75 200,75 200,75 
						170,75 160,75 150,75 					"/>
				</g>
			</g>
		</g>
	</g>
</g>
<g id="dim">
</g>
</svg>
