<?xml version="1.0" encoding="utf-8"?>
<!-- Generator: Adobe Illustrator 18.1.1, SVG Export Plug-In . SVG Version: 6.00 Build 0)  -->
<svg version="1.1" xmlns="http://www.w3.org/2000/svg" xmlns:xlink="http://www.w3.org/1999/xlink" x="0px" y="0px"
	 viewBox="0 0 600 150" enable-background="new 0 0 600 150" xml:space="preserve">
<g id="Layer_1">
</g>
<g id="REFER">
	<g>
		<g>
			<g id="XMLID_1_">
				<g>
					<path fill="#414042" d="M250,75h-10c0-11-4.5-21-11.7-28.3l7.1-7.1C244.4,48.7,250,61.2,250,75z"/>
					<path fill="#E6E7E8" d="M425.4,39.7c9,9,14.6,21.5,14.6,35.3h-10c0-11-4.5-21-11.7-28.3L425.4,39.7z"/>
					<path fill="#414042" d="M540,75h-10c0-11-4.5-21-11.7-28.3l7.1-7.1C534.4,48.7,540,61.2,540,75z"/>
					<path fill="#414042" d="M155,53.2c-3.2,6.6-5,14-5,21.8c0-11-4.5-21-11.7-28.3l7.1-7.1C149.3,43.6,152.6,48.1,155,53.2z"/>
					<path fill="#E6E7E8" d="M160,75c0,11,4.5,21,11.7,28.3l-7.1,7.1c-3.9-3.9-7.2-8.5-9.6-13.5C158.2,90.2,160,82.8,160,75z"/>
					<path fill="#E6E7E8" d="M150,75c0,7.8,1.8,15.2,5,21.8c-2.4,5-5.7,9.6-9.6,13.5l-7.1-7.1C145.5,96,150,86,150,75z"/>
					<path fill="#E6E7E8" d="M200,115v10c-13.8,0-26.3-5.6-35.4-14.6l7.1-7.1C179,110.5,189,115,200,115z"/>
					<path fill="#E6E7E8" d="M110,115v10c-13.8,0-26.3-5.6-35.3-14.6l7.1-7.1C89,110.5,99,115,110,115z"/>
					<path fill="#414042" d="M490,115v10c-13.8,0-26.3-5.6-35.3-14.6l7.1-7.1C469,110.5,479,115,490,115z"/>
					<path fill="#E6E7E8" d="M300,115v10c-13.8,0-26.3-5.6-35.3-14.6l7.1-7.1C279,110.5,289,115,300,115z"/>
					<path fill="#414042" d="M390,115v10c-13.8,0-26.3-5.6-35.3-14.6l7.1-7.1C369,110.5,379,115,390,115z"/>
					<path fill="#414042" d="M155,53.2c3.2,6.6,5,14,5,21.8h-10C150,67.2,151.8,59.8,155,53.2z"/>
					<path fill="#414042" d="M340,75c0,7.8,1.8,15.2,5,21.8c-2.4,5.1-5.7,9.6-9.6,13.5l-7.1-7.1C335.5,96,340,86,340,75z"/>
					<path fill="#414042" d="M345,96.8c3.2-6.6,5-14,5-21.8c0,11.1,4.5,21.1,11.7,28.3l-7.1,7.1C350.7,106.4,347.5,101.9,345,96.8z"
						/>
					<path fill="#E6E7E8" d="M260,75h-10v0c0-13.8,5.6-26.3,14.7-35.3l7.1,7.1C264.5,54,260,64,260,75z"/>
					<path fill="#414042" d="M525.4,39.7l-7.1,7.1C511.1,39.5,501.1,35,490,35V25C503.8,25,516.3,30.6,525.4,39.7z"/>
					<path fill="#414042" d="M335.4,39.7l-7.1,7.1C321.1,39.5,311.1,35,300,35V25C313.8,25,326.3,30.6,335.4,39.7z"/>
					<path fill="#E6E7E8" d="M390,25c13.8,0,26.3,5.6,35.4,14.6l-7.1,7.1C411.1,39.5,401.1,35,390,35V25z"/>
					<path fill="#414042" d="M74.7,39.6l7.1,7.1C74.5,53.9,70,63.9,70,75H60C60,61.2,65.6,48.7,74.7,39.6z"/>
					<path fill="#414042" d="M361.7,46.7C354.5,54,350,64,350,75c0-7.8-1.8-15.2-5-21.8c2.5-5,5.7-9.6,9.7-13.5L361.7,46.7z"/>
					<path fill="#414042" d="M490,25v10c-11,0-21,4.5-28.3,11.7l-7.1-7.1C463.7,30.6,476.2,25,490,25z"/>
					<path fill="#414042" d="M390,25v10c-11,0-21,4.5-28.3,11.7l-7.1-7.1C363.7,30.6,376.2,25,390,25z"/>
					<path fill="#E6E7E8" d="M300,25v10c-11,0-21,4.5-28.3,11.7l-7.1-7.1C273.7,30.6,286.2,25,300,25z"/>
					<path fill="#414042" d="M160,75c0-7.8-1.8-15.2-5-21.8c2.4-5,5.7-9.6,9.6-13.5l7.1,7.1C164.5,53.9,160,63.9,160,75z"/>
					<path fill="#414042" d="M345,53.2c-3.2,6.6-5,14-5,21.8c0-11-4.5-21-11.7-28.3l7.1-7.1C339.3,43.6,342.6,48.1,345,53.2z"/>
					<path fill="#414042" d="M200,25c13.8,0,26.3,5.6,35.4,14.7l-7.1,7.1C221.1,39.5,211.1,35,200,35V25z"/>
					<path fill="#414042" d="M110,35V25c13.8,0,26.3,5.6,35.4,14.7l-7.1,7.1C131.1,39.5,121.1,35,110,35z"/>
					<path fill="#E6E7E8" d="M145.4,110.4c-9.1,9.1-21.6,14.6-35.4,14.6v-10c11.1,0,21-4.5,28.3-11.7L145.4,110.4z"/>
					<path fill="#414042" d="M70,75c0,11,4.5,21,11.7,28.3l-7.1,7.1c-9-9-14.6-21.5-14.6-35.4H70z"/>
					<path fill="#E6E7E8" d="M160,75c0,7.8-1.8,15.2-5,21.8c-3.2-6.6-5-14-5-21.8H160z"/>
					<path fill="#E6E7E8" d="M260,75c0,11.1,4.5,21.1,11.7,28.3l-7.1,7.1c-9.1-9-14.7-21.5-14.7-35.4H260z"/>
					<path fill="#E6E7E8" d="M450,75c0,11.1,4.5,21.1,11.7,28.3l-7.1,7.1c-9.1-9-14.7-21.5-14.7-35.4H450z"/>
					<path fill="#414042" d="M240,75h10v0c0,13.8-5.6,26.3-14.6,35.3l-7.1-7.1C235.5,96,240,86,240,75z"/>
					<path fill="#414042" d="M81.7,46.7l-7.1-7.1C83.7,30.6,96.2,25,110,25v10C99,35,89,39.5,81.7,46.7z"/>
					<path fill="#414042" d="M171.7,46.7l-7.1-7.1c9-9.1,21.5-14.7,35.4-14.7v10C189,35,179,39.5,171.7,46.7z"/>
					<path fill="#E6E7E8" d="M200,125v-10c11,0,21-4.5,28.3-11.7l7.1,7.1C226.3,119.4,213.8,125,200,125z"/>
					<path fill="#E6E7E8" d="M461.7,46.7C454.5,54,450,64,450,75h-10c0-13.8,5.6-26.3,14.7-35.3L461.7,46.7z"/>
					<path fill="#414042" d="M350,75h-10c0-7.8,1.8-15.2,5-21.8C348.2,59.8,350,67.2,350,75z"/>
					<path fill="#414042" d="M345,96.8c-3.2-6.6-5-14-5-21.8h10C350,82.8,348.2,90.2,345,96.8z"/>
					<path fill="#E6E7E8" d="M418.3,103.3C425.5,96,430,86,430,75h10c0,13.8-5.6,26.3-14.6,35.4L418.3,103.3z"/>
					<path fill="#414042" d="M518.3,103.3C525.5,96,530,86,530,75h10c0,13.8-5.6,26.3-14.6,35.4L518.3,103.3z"/>
					<path fill="#414042" d="M335.4,110.4c-9.1,9-21.6,14.6-35.4,14.6v-10c11.1,0,21.1-4.5,28.3-11.7L335.4,110.4z"/>
					<path fill="#E6E7E8" d="M390,125v-10c11.1,0,21.1-4.5,28.3-11.7l7.1,7.1C416.3,119.4,403.8,125,390,125z"/>
					<path fill="#414042" d="M518.3,103.3l7.1,7.1c-9,9-21.6,14.6-35.4,14.6v-10C501.1,115,511.1,110.5,518.3,103.3z"/>
				</g>
				<g>
					<path fill="none" stroke="#6D6E71" stroke-width="0.1" stroke-miterlimit="10" d="M530,75c0,11-4.5,21-11.7,28.3
						c-7.2,7.2-17.2,11.7-28.3,11.7c-11,0-21-4.5-28.3-11.7C454.5,96.1,450,86.1,450,75c0-11,4.5-21,11.7-28.3
						C469,39.5,479,35,490,35c11.1,0,21.1,4.5,28.3,11.7C525.5,54,530,64,530,75z"/>
					<path fill="none" stroke="#6D6E71" stroke-width="0.1" stroke-miterlimit="10" d="M540,75c0,13.8-5.6,26.3-14.6,35.4
						c-9,9-21.6,14.6-35.4,14.6s-26.3-5.6-35.3-14.6c-9.1-9-14.7-21.5-14.7-35.4c0-13.8,5.6-26.3,14.7-35.3c9-9,21.5-14.6,35.3-14.6
						s26.3,5.6,35.4,14.6S540,61.2,540,75z"/>
					<polyline fill="none" stroke="#6D6E71" stroke-width="0.1" stroke-miterlimit="10" points="490,75 518.3,103.3 525.4,110.4 
											"/>
					<polyline fill="none" stroke="#6D6E71" stroke-width="0.1" stroke-miterlimit="10" points="454.7,39.7 461.7,46.7 490,75 					
						"/>
					<polyline fill="none" stroke="#6D6E71" stroke-width="0.1" stroke-miterlimit="10" points="490,25 490,35 490,75 490,75 
						490,115 490,125 					"/>
					<polyline fill="none" stroke="#6D6E71" stroke-width="0.1" stroke-miterlimit="10" points="525.4,39.7 518.3,46.7 490,75 
						490,75 490,75 461.7,103.3 454.7,110.4 					"/>
					<polyline fill="none" stroke="#6D6E71" stroke-width="0.1" stroke-miterlimit="10" points="540,75 530,75 490,75 490,75 
						450,75 440,75 					"/>
					<path fill="none" stroke="#6D6E71" stroke-width="0.1" stroke-miterlimit="10" d="M340,75c0,11-4.5,21-11.7,28.3
						c-7.2,7.2-17.2,11.7-28.3,11.7c-11,0-21-4.5-28.3-11.7C264.5,96.1,260,86.1,260,75c0-11,4.5-21,11.7-28.3
						C279,39.5,289,35,300,35c11.1,0,21.1,4.5,28.3,11.7C335.5,54,340,64,340,75z"/>
					<path fill="none" stroke="#6D6E71" stroke-width="0.1" stroke-miterlimit="10" d="M250,75c0-13.8,5.6-26.3,14.7-35.3
						c9-9,21.5-14.6,35.3-14.6s26.3,5.6,35.4,14.6c3.9,3.9,7.2,8.5,9.6,13.5c3.2,6.6,5,14,5,21.8s-1.8,15.2-5,21.8
						c-2.4,5.1-5.7,9.6-9.6,13.5c-9.1,9-21.6,14.6-35.4,14.6s-26.3-5.6-35.3-14.6C255.6,101.3,250,88.8,250,75"/>
					<polyline fill="none" stroke="#6D6E71" stroke-width="0.1" stroke-miterlimit="10" points="300,75 328.3,103.3 335.4,110.4 
											"/>
					<polyline fill="none" stroke="#6D6E71" stroke-width="0.1" stroke-miterlimit="10" points="264.7,39.7 271.7,46.7 300,75 					
						"/>
					<polyline fill="none" stroke="#6D6E71" stroke-width="0.1" stroke-miterlimit="10" points="300,25 300,35 300,75 300,75 
						300,115 300,125 					"/>
					<polyline fill="none" stroke="#6D6E71" stroke-width="0.1" stroke-miterlimit="10" points="335.4,39.7 328.3,46.7 300,75 
						300,75 300,75 271.7,103.3 264.7,110.4 					"/>
					<polyline fill="none" stroke="#6D6E71" stroke-width="0.1" stroke-miterlimit="10" points="340,75 300,75 300,75 260,75 
						250,75 					"/>
					<path fill="none" stroke="#6D6E71" stroke-width="0.1" stroke-miterlimit="10" d="M430,75c0,11-4.5,21-11.7,28.3
						c-7.2,7.2-17.2,11.7-28.3,11.7c-11,0-21-4.5-28.3-11.7C354.5,96.1,350,86.1,350,75c0-11,4.5-21,11.7-28.3
						C369,39.5,379,35,390,35c11.1,0,21.1,4.5,28.3,11.7C425.5,54,430,64,430,75z"/>
					<path fill="none" stroke="#6D6E71" stroke-width="0.1" stroke-miterlimit="10" d="M440,75c0,13.8-5.6,26.3-14.6,35.4
						c-9.1,9-21.6,14.6-35.4,14.6s-26.3-5.6-35.3-14.6c-3.9-3.9-7.2-8.5-9.7-13.5c-3.2-6.6-5-14-5-21.8s1.8-15.2,5-21.8
						c2.5-5,5.7-9.6,9.7-13.5c9-9,21.5-14.6,35.3-14.6s26.3,5.6,35.4,14.6C434.4,48.7,440,61.2,440,75z"/>
					<polyline fill="none" stroke="#6D6E71" stroke-width="0.1" stroke-miterlimit="10" points="390,75 418.3,103.3 425.4,110.4 
											"/>
					<polyline fill="none" stroke="#6D6E71" stroke-width="0.1" stroke-miterlimit="10" points="354.7,39.7 361.7,46.7 390,75 					
						"/>
					<polyline fill="none" stroke="#6D6E71" stroke-width="0.1" stroke-miterlimit="10" points="390,25 390,35 390,75 390,75 
						390,115 390,125 					"/>
					<polyline fill="none" stroke="#6D6E71" stroke-width="0.1" stroke-miterlimit="10" points="425.4,39.7 418.3,46.7 390,75 
						390,75 390,75 361.7,103.3 354.7,110.4 					"/>
					<polyline fill="none" stroke="#6D6E71" stroke-width="0.1" stroke-miterlimit="10" points="440,75 430,75 390,75 390,75 
						350,75 340,75 					"/>
					<path fill="none" stroke="#6D6E71" stroke-width="0.1" stroke-miterlimit="10" d="M150,75c0,11-4.5,21-11.7,28.3
						c-7.2,7.2-17.2,11.7-28.3,11.7c-11,0-21-4.5-28.3-11.7C74.5,96,70,86,70,75s4.5-21.1,11.7-28.3C89,39.5,99,35,110,35
						s21,4.5,28.3,11.7C145.5,54,150,64,150,75z"/>
					<path fill="none" stroke="#6D6E71" stroke-width="0.1" stroke-miterlimit="10" d="M160,75c0,7.8-1.8,15.2-5,21.8
						c-2.4,5-5.7,9.6-9.6,13.5c-9.1,9.1-21.6,14.6-35.4,14.6s-26.3-5.6-35.3-14.6c-9-9-14.6-21.5-14.6-35.4s5.6-26.3,14.6-35.4
						C83.7,30.6,96.2,25,110,25s26.3,5.6,35.4,14.7c3.9,3.9,7.2,8.5,9.6,13.5C158.2,59.8,160,67.2,160,75z"/>
					<polyline fill="none" stroke="#6D6E71" stroke-width="0.1" stroke-miterlimit="10" points="110,75 138.3,103.3 145.4,110.4 
											"/>
					<polyline fill="none" stroke="#6D6E71" stroke-width="0.1" stroke-miterlimit="10" points="74.7,39.6 81.7,46.7 110,75 					
						"/>
					<polyline fill="none" stroke="#6D6E71" stroke-width="0.1" stroke-miterlimit="10" points="110,25 110,35 110,75 110,75 
						110,115 110,125 					"/>
					<polyline fill="none" stroke="#6D6E71" stroke-width="0.1" stroke-miterlimit="10" points="145.4,39.6 138.3,46.7 110,75 
						110,75 110,75 81.7,103.3 74.7,110.4 					"/>
					<polyline fill="none" stroke="#6D6E71" stroke-width="0.1" stroke-miterlimit="10" points="150,75 110,75 110,75 70,75 60,75 
											"/>
					<path fill="none" stroke="#6D6E71" stroke-width="0.1" stroke-miterlimit="10" d="M240,75c0,11-4.5,21-11.7,28.3
						c-7.2,7.2-17.2,11.7-28.3,11.7c-11,0-21-4.5-28.3-11.7C164.5,96,160,86,160,75s4.5-21.1,11.7-28.3C179,39.5,189,35,200,35
						c11,0,21,4.5,28.3,11.7C235.5,54,240,64,240,75z"/>
					<path fill="none" stroke="#6D6E71" stroke-width="0.1" stroke-miterlimit="10" d="M250,75L250,75c0,13.8-5.6,26.3-14.6,35.4
						c-9.1,9.1-21.6,14.6-35.4,14.6s-26.3-5.6-35.4-14.6c-3.9-3.9-7.2-8.5-9.6-13.5c-3.2-6.6-5-14-5-21.8s1.8-15.2,5-21.8
						c2.4-5,5.7-9.6,9.6-13.5c9-9.1,21.5-14.7,35.4-14.7s26.3,5.6,35.4,14.7C244.4,48.7,250,61.2,250,75z"/>
					<polyline fill="none" stroke="#6D6E71" stroke-width="0.1" stroke-miterlimit="10" points="200,75 228.3,103.3 235.4,110.4 
											"/>
					<polyline fill="none" stroke="#6D6E71" stroke-width="0.1" stroke-miterlimit="10" points="164.7,39.6 171.7,46.7 200,75 					
						"/>
					<polyline fill="none" stroke="#6D6E71" stroke-width="0.1" stroke-miterlimit="10" points="200,25 200,35 200,75 200,75 
						200,115 200,125 					"/>
					<polyline fill="none" stroke="#6D6E71" stroke-width="0.1" stroke-miterlimit="10" points="235.4,39.6 228.3,46.7 200,75 
						200,75 200,75 171.7,103.3 164.7,110.4 					"/>
					<polyline fill="none" stroke="#6D6E71" stroke-width="0.1" stroke-miterlimit="10" points="250,75 240,75 200,75 200,75 
						160,75 150,75 					"/>
				</g>
			</g>
		</g>
	</g>
</g>
<g id="dim">
</g>
</svg>
