<?xml version="1.0" encoding="utf-8"?>
<!-- Generator: Adobe Illustrator 18.1.1, SVG Export Plug-In . SVG Version: 6.00 Build 0)  -->
<svg version="1.1" id="Layer_1" xmlns="http://www.w3.org/2000/svg" xmlns:xlink="http://www.w3.org/1999/xlink" x="0px" y="0px"
	 viewBox="0 0 250 125" enable-background="new 0 0 250 125" xml:space="preserve">
<g id="Layer_1_1_">
	<rect x="0" fill="#F0F0F0" width="250" height="125"/>
</g>
<g id="REFER">
	<g>
		<g>
			<g id="XMLID_3_">
				<g>
					<path fill="#414042" d="M202.5,24.1h-3.2c0-3.5-1.4-6.8-3.8-9.1l2.3-2.3C200.7,15.6,202.5,19.6,202.5,24.1z"/>
					<path fill="#414042" d="M199.3,24.1h3.2c0,4.4-1.8,8.5-4.8,11.4l-2.3-2.3C197.8,30.9,199.3,27.7,199.3,24.1z"/>
					<path fill="#414042" d="M202.5,62.9h-10.3c0.3-1,0.6-2.1,0.6-3.2c0-1-0.1-1.9-0.4-2.8l5.4-5.4
						C200.7,54.4,202.5,58.5,202.5,62.9z"/>
					<path fill="#414042" d="M192.3,62.9h10.3c0,4.4-1.8,8.5-4.8,11.4l-7.7-7.7C191,65.5,191.8,64.3,192.3,62.9z"/>
					<path fill="#414042" d="M202.5,101h-6.4l0,0c0-2.7-1.1-5.1-2.9-6.9l4.5-4.5C200.7,92.6,202.5,96.5,202.5,101z"/>
					<path fill="#414042" d="M196.1,101h6.4c0,4.4-1.8,8.5-4.8,11.4l-4.5-4.5C195,106.1,196.1,103.7,196.1,101z"/>
					<path fill="#414042" d="M197.8,12.6l-2.3,2.3c-2.3-2.3-5.5-3.8-9.2-3.8V8C190.9,8,194.9,9.7,197.8,12.6z"/>
					<path fill="#414042" d="M197.8,51.5l-5.4,5.4c-0.9-3-3.1-5.3-6.1-6.3v-3.8C190.9,46.7,194.9,48.6,197.8,51.5z"/>
					<path fill="#414042" d="M197.8,89.6l-4.5,4.5c-1.8-1.8-4.2-2.9-6.9-2.9v-6.4C190.9,84.8,194.9,86.7,197.8,89.6z"/>
					<path fill="#414042" d="M195.5,33.2l2.3,2.3c-2.9,2.9-7,4.8-11.4,4.8v-3.2C190,37,193.2,35.5,195.5,33.2z"/>
					<path fill="#414042" d="M190,66.5l7.7,7.7c-2.9,2.9-7,4.8-11.4,4.8V68.8C187.8,68.3,189,67.5,190,66.5z"/>
					<path fill="#414042" d="M193.2,107.8l4.5,4.5c-2.9,2.9-7,4.8-11.4,4.8v-6.4C189.1,110.7,191.4,109.6,193.2,107.8z"/>
					<path fill="#414042" d="M186.3,110.7v6.4c-4.4,0-8.5-1.8-11.4-4.8l4.5-4.5C181.2,109.6,183.7,110.7,186.3,110.7z"/>
					<path fill="#414042" d="M186.3,84.8v6.5c-2.7,0-5.1,1.1-6.9,2.9l-4.5-4.5C177.9,86.7,181.9,84.8,186.3,84.8z"/>
					<path fill="#414042" d="M186.3,68.9v10.3c-4.4,0-8.5-1.8-11.4-4.8l5.4-5.4c0.9,0.2,1.9,0.4,2.8,0.4
						C184.2,69.4,185.3,69.2,186.3,68.9z"/>
					<path fill="#414042" d="M186.3,46.7v3.8c-1-0.3-2.1-0.6-3.2-0.6c-2.7,0-5.1,1.1-6.9,2.9l-1.3-1.3
						C177.9,48.6,181.9,46.7,186.3,46.7z"/>
					<path fill="#414042" d="M186.3,37v3.2c-4.4,0-8.5-1.8-11.4-4.8l2.3-2.3C179.6,35.5,182.8,37,186.3,37z"/>
					<path fill="#414042" d="M186.3,8v3.2c-3.5,0-6.8,1.4-9.2,3.8l-2.3-2.3C177.9,9.7,181.9,8,186.3,8z"/>
					<path fill="#E6E7E8" d="M180.4,69l-5.4,5.4c-2.9-2.9-4.8-7-4.8-11.4h3.8C175,65.8,177.4,68.1,180.4,69z"/>
					<path fill="#E6E7E8" d="M176.7,101c0,2.7,1.1,5.1,2.9,6.9l-4.5,4.5c-2.9-2.9-4.8-7-4.8-11.4L176.7,101L176.7,101z"/>
					<path fill="#E6E7E8" d="M174.9,89.6l4.5,4.5c-1.8,1.8-2.9,4.2-2.9,6.9l0,0h-6.4l0,0C170.2,96.5,172.1,92.6,174.9,89.6z"/>
					<path fill="#E6E7E8" d="M177.3,33.2l-2.3,2.3c-2.9-2.9-4.8-7-4.8-11.4h3.2C173.5,27.7,174.9,30.9,177.3,33.2z"/>
					<path fill="#E6E7E8" d="M174.9,12.6l2.3,2.3c-2.3,2.3-3.8,5.5-3.8,9.2h-3.2C170.2,19.6,172.1,15.6,174.9,12.6z"/>
					<path fill="#E6E7E8" d="M174.9,51.5l1.3,1.3c-1.8,1.8-2.9,4.2-2.9,6.9c0,1.1,0.2,2.2,0.6,3.2h-3.8l0,0
						C170.2,58.5,172.1,54.4,174.9,51.5z"/>
					<path fill="#E6E7E8" d="M170.2,62.9L170.2,62.9c0,4.4-1.8,8.5-4.8,11.4l-7.7-7.7c1-1,1.8-2.2,2.3-3.7H170.2z"/>
					<path fill="#E6E7E8" d="M170.2,101L170.2,101c0,4.4-1.8,8.5-4.8,11.4l-4.5-4.5l0,0c1.8-1.8,2.9-4.2,2.9-6.9l0,0L170.2,101
						L170.2,101z"/>
					<path fill="#E6E7E8" d="M170.2,24.1H167c0-3.5-1.4-6.8-3.8-9.1l2.3-2.3C168.4,15.6,170.2,19.6,170.2,24.1z"/>
					<path fill="#E6E7E8" d="M167,24.1h3.2c0,4.4-1.8,8.5-4.8,11.4l-2.3-2.3C165.5,30.9,167,27.7,167,24.1z"/>
					<path fill="#E6E7E8" d="M170.2,62.9h-10.3c0.3-1,0.6-2.1,0.6-3.2c0-1-0.1-1.9-0.4-2.8l5.4-5.4
						C168.4,54.4,170.2,58.5,170.2,62.9z"/>
					<path fill="#E6E7E8" d="M170.2,101h-6.4c0-2.7-1.1-5.1-2.9-6.9l4.5-4.5C168.4,92.6,170.2,96.5,170.2,101z"/>
					<path fill="#E6E7E8" d="M165.5,12.6l-2.3,2.3c-2.3-2.3-5.5-3.8-9.2-3.8V8C158.5,8,162.5,9.7,165.5,12.6z"/>
					<path fill="#E6E7E8" d="M165.5,51.5l-5.4,5.4c-0.9-3-3.1-5.3-6.1-6.3v-3.8C158.5,46.7,162.5,48.6,165.5,51.5z"/>
					<path fill="#E6E7E8" d="M165.5,89.6l-4.5,4.5c-1.8-1.8-4.2-2.9-6.9-2.9v-6.4C158.5,84.8,162.5,86.7,165.5,89.6z"/>
					<path fill="#E6E7E8" d="M163.2,33.2l2.3,2.3c-2.9,2.9-7,4.8-11.4,4.8v-3.2C157.7,37,160.9,35.5,163.2,33.2z"/>
					<path fill="#E6E7E8" d="M157.7,66.5l7.7,7.7c-2.9,2.9-7,4.8-11.4,4.8V68.8C155.4,68.3,156.7,67.5,157.7,66.5z"/>
					<path fill="#E6E7E8" d="M160.9,107.8l4.5,4.5c-2.9,2.9-7,4.8-11.4,4.8v-6.4C156.8,110.7,159.2,109.6,160.9,107.8z"/>
					<path fill="#414042" d="M154.1,110.7v6.4c-4.4,0-8.5-1.8-11.4-4.8l4.5-4.5C149,109.6,151.3,110.7,154.1,110.7z"/>
					<path fill="#414042" d="M154.1,84.8v6.5c-2.7,0-5.1,1.1-6.9,2.9l0,0l-4.5-4.5C145.6,86.7,149.6,84.8,154.1,84.8z"/>
					<path fill="#414042" d="M154.1,68.9v10.3c-4.4,0-8.5-1.8-11.4-4.8l5.4-5.4c0.9,0.2,1.9,0.4,2.8,0.4
						C152,69.4,153,69.2,154.1,68.9z"/>
					<path fill="#414042" d="M154.1,46.7v3.8c-1-0.3-2.1-0.6-3.2-0.6c-2.7,0-5.1,1.1-6.9,2.9l-1.3-1.3
						C145.6,48.6,149.6,46.7,154.1,46.7z"/>
					<path fill="#414042" d="M154.1,37v3.2c-4.4,0-8.5-1.8-11.4-4.8l2.3-2.3C147.3,35.5,150.5,37,154.1,37z"/>
					<path fill="#414042" d="M154.1,8v3.2c-3.5,0-6.8,1.4-9.2,3.8l-2.3-2.3C145.6,9.7,149.6,8,154.1,8z"/>
					<path fill="#414042" d="M148,69l-5.4,5.4c-1.2-1.2-2.3-2.8-3.1-4.4c1-2.1,1.7-4.5,1.7-7.1h0.6C142.7,65.8,145,68.1,148,69z"/>
					<path fill="#414042" d="M142.6,89.6l4.5,4.5c-1.8,1.8-2.9,4.2-2.9,6.9h-3.2c0-2.5-0.6-4.9-1.7-7.1
						C140.3,92.3,141.4,90.9,142.6,89.6z"/>
					<path fill="#414042" d="M147.3,107.8l-4.5,4.5c-1.2-1.2-2.3-2.8-3.1-4.4c1-2.1,1.7-4.5,1.7-7.1h3.2l0,0
						C144.4,103.6,145.5,106.1,147.3,107.8z"/>
					<path fill="#414042" d="M144.9,33.2l-2.3,2.3c-1.2-1.2-2.3-2.8-3.1-4.4c1-2.1,1.7-4.5,1.7-7.1
						C141.2,27.7,142.6,30.9,144.9,33.2z"/>
					<path fill="#414042" d="M142.6,12.6l2.3,2.3c-2.3,2.3-3.8,5.5-3.8,9.2c0-2.5-0.6-4.9-1.7-7.1C140.3,15.4,141.4,14,142.6,12.6z"
						/>
					<path fill="#414042" d="M142.6,51.5l1.3,1.3c-1.8,1.8-2.9,4.2-2.9,6.9c0,1.1,0.2,2.2,0.6,3.2h-0.6c0-2.5-0.6-4.9-1.7-7.1
						C140.3,54.3,141.4,52.7,142.6,51.5z"/>
					<path fill="#414042" d="M138,24.1h3.2c0,2.5-0.6,4.9-1.7,7.1C138.5,29,138,26.6,138,24.1z"/>
					<path fill="#414042" d="M141.2,24.1H138c0-2.5,0.6-4.9,1.7-7.1C140.6,19.2,141.2,21.6,141.2,24.1z"/>
					<path fill="#414042" d="M138,62.9h3.2c0,2.5-0.6,4.9-1.7,7.1C138.5,67.9,138,65.4,138,62.9z"/>
					<path fill="#414042" d="M141.2,62.9H138c0-2.5,0.6-4.9,1.7-7.1C140.6,58,141.2,60.3,141.2,62.9z"/>
					<path fill="#414042" d="M138,101h3.2c0,2.5-0.6,4.9-1.7,7.1C138.5,106,138,103.5,138,101z"/>
					<path fill="#414042" d="M141.2,101H138c0-2.5,0.6-4.9,1.7-7.1C140.6,96.1,141.2,98.4,141.2,101z"/>
					<path fill="#414042" d="M139.5,17.1c-1,2.1-1.7,4.5-1.7,7.1c0-3.5-1.4-6.8-3.8-9.1l2.3-2.3C137.7,14,138.7,15.4,139.5,17.1z"/>
					<path fill="#414042" d="M138,24.1c0,2.5,0.6,4.9,1.7,7.1c-0.8,1.7-1.9,3.1-3.1,4.4l-2.3-2.3C136.5,30.9,138,27.7,138,24.1z"/>
					<path fill="#414042" d="M139.5,55.9c-1,2.1-1.7,4.5-1.7,7.1h-7c0.3-1,0.6-2.1,0.6-3.2c0-1-0.1-1.9-0.4-2.8l5.4-5.4
						C137.7,52.7,138.7,54.3,139.5,55.9z"/>
					<path fill="#414042" d="M138,62.9c0,2.5,0.6,4.9,1.7,7.1c-0.8,1.7-1.9,3.1-3.1,4.4l-7.7-7.7c1-1,1.8-2.2,2.3-3.7h6.9V62.9z"/>
					<path fill="#414042" d="M139.5,94c-1,2.1-1.7,4.5-1.7,7.1h-3.2c0-2.7-1.1-5.1-2.9-6.9l4.5-4.5C137.7,90.9,138.7,92.3,139.5,94z
						"/>
					<path fill="#414042" d="M138,101c0,2.5,0.6,4.9,1.7,7.1c-0.8,1.7-1.9,3.1-3.1,4.4l-4.5-4.5l0,0c1.8-1.8,2.9-4.2,2.9-6.9l0,0
						h3.1V101z"/>
					<path fill="#414042" d="M136.4,12.6l-2.3,2.3c-2.3-2.3-5.5-3.8-9.2-3.8V8C129.4,8,133.5,9.7,136.4,12.6z"/>
					<path fill="#414042" d="M136.4,51.5l-5.4,5.4c-0.9-3-3.1-5.3-6.1-6.3v-3.8C129.4,46.7,133.5,48.6,136.4,51.5z"/>
					<path fill="#414042" d="M136.4,89.6l-4.5,4.5c-1.8-1.8-4.2-2.9-6.9-2.9v-6.4C129.4,84.8,133.5,86.7,136.4,89.6z"/>
					<path fill="#414042" d="M134.2,33.2l2.3,2.3c-2.9,2.9-7,4.8-11.4,4.8v-3.2C128.5,37,131.8,35.5,134.2,33.2z"/>
					<path fill="#414042" d="M128.7,66.5l7.7,7.7c-2.9,2.9-7,4.8-11.4,4.8V68.8C126.3,68.3,127.7,67.5,128.7,66.5z"/>
					<path fill="#414042" d="M131.9,107.8l4.5,4.5c-2.9,2.9-7,4.8-11.4,4.8v-6.4C127.7,110.7,130.1,109.6,131.9,107.8z"/>
					<path fill="#E6E7E8" d="M125,110.7v6.4c-4.4,0-8.5-1.8-11.4-4.8l4.5-4.5C119.9,109.6,122.3,110.7,125,110.7z"/>
					<path fill="#E6E7E8" d="M125,84.8v6.5c-2.7,0-5.1,1.1-6.9,2.9l0,0l-4.5-4.5C116.5,86.7,120.6,84.8,125,84.8z"/>
					<path fill="#E6E7E8" d="M125,68.9v10.3c-4.4,0-8.5-1.8-11.4-4.8L119,69c0.9,0.2,1.9,0.4,2.8,0.4C122.9,69.4,124,69.2,125,68.9z
						"/>
					<path fill="#E6E7E8" d="M125,46.7v3.8c-1-0.3-2.1-0.6-3.2-0.6c-2.7,0-5.1,1.1-6.9,2.9l-1.3-1.3C116.5,48.6,120.6,46.7,125,46.7
						z"/>
					<path fill="#E6E7E8" d="M125,37v3.2c-4.4,0-8.5-1.8-11.4-4.8l2.3-2.3C118.2,35.5,121.5,37,125,37z"/>
					<path fill="#E6E7E8" d="M125,8v3.2c-3.5,0-6.8,1.4-9.2,3.8l-2.3-2.3C116.5,9.7,120.6,8,125,8z"/>
					<path fill="#E6E7E8" d="M118.9,69l-5.4,5.4c-2.9-2.9-4.8-7-4.8-11.4h3.8C113.7,65.8,116,68.1,118.9,69z"/>
					<path fill="#E6E7E8" d="M113.6,89.6l4.5,4.5c-1.8,1.8-2.9,4.2-2.9,6.9h-6.4C108.8,96.5,110.6,92.6,113.6,89.6z"/>
					<path fill="#E6E7E8" d="M118.1,107.8l-4.5,4.5c-2.9-2.9-4.8-7-4.8-11.4h6.4l0,0C115.3,103.6,116.4,106.1,118.1,107.8z"/>
					<path fill="#E6E7E8" d="M115.9,33.2l-2.3,2.3c-2.9-2.9-4.8-7-4.8-11.4h3.2C112,27.7,113.5,30.9,115.9,33.2z"/>
					<path fill="#E6E7E8" d="M113.6,12.6l2.3,2.3c-2.3,2.3-3.8,5.5-3.8,9.2h-3.2l0,0C108.8,19.6,110.6,15.6,113.6,12.6z"/>
					<path fill="#E6E7E8" d="M113.6,51.5l1.3,1.3c-1.8,1.8-2.9,4.2-2.9,6.9c0,1.1,0.2,2.2,0.6,3.2h-3.8
						C108.8,58.5,110.6,54.4,113.6,51.5z"/>
					<path fill="#414042" d="M108.8,24.1L108.8,24.1c0,4.4-1.8,8.5-4.8,11.4l-2.3-2.3c2.3-2.3,3.8-5.5,3.8-9.2h3.3V24.1z"/>
					<path fill="#414042" d="M108.8,24.1h-3.2c0-3.5-1.4-6.8-3.8-9.1l2.3-2.3C107.1,15.6,108.8,19.6,108.8,24.1z"/>
					<path fill="#414042" d="M108.8,62.9H98.5c0.3-1,0.6-2.1,0.6-3.2c0-1-0.1-1.9-0.4-2.8l5.4-5.4C107.1,54.4,108.8,58.5,108.8,62.9
						z"/>
					<path fill="#414042" d="M98.7,62.9h10.3c0,4.4-1.8,8.5-4.8,11.4l-7.7-7.7C97.3,65.5,98.1,64.3,98.7,62.9z"/>
					<path fill="#414042" d="M108.8,101h-6.4c0-2.7-1.1-5.1-2.9-6.9l4.5-4.5C107.1,92.6,108.8,96.5,108.8,101z"/>
					<path fill="#414042" d="M102.4,101h6.4c0,4.4-1.8,8.5-4.8,11.4l-4.5-4.5C101.3,106.1,102.4,103.6,102.4,101L102.4,101z"/>
					<path fill="#414042" d="M104.1,12.6l-2.3,2.3c-2.3-2.3-5.5-3.8-9.2-3.8V8C97.2,8,101.2,9.7,104.1,12.6z"/>
					<path fill="#414042" d="M104.1,51.5l-5.4,5.4c-0.9-3-3.1-5.3-6.1-6.3v-3.8C97.2,46.7,101.2,48.6,104.1,51.5z"/>
					<path fill="#414042" d="M104.1,89.6l-4.5,4.5l0,0c-1.8-1.8-4.2-2.9-6.9-2.9l0,0v-6.4C97.2,84.8,101.2,86.7,104.1,89.6z"/>
					<path fill="#E6E7E8" d="M101.9,33.2l2.3,2.3c-2.9,2.9-7,4.8-11.4,4.8v-3.2C96.2,37,99.5,35.5,101.9,33.2z"/>
					<path fill="#E6E7E8" d="M96.3,66.5l7.7,7.7c-2.9,2.9-7,4.8-11.4,4.8V68.8C94.1,68.3,95.3,67.5,96.3,66.5z"/>
					<path fill="#E6E7E8" d="M99.5,107.8l4.5,4.5c-2.9,2.9-7,4.8-11.4,4.8v-6.4l0,0C95.3,110.7,97.8,109.6,99.5,107.8z"/>
					<path fill="#E6E7E8" d="M92.7,110.7v6.4c-4.4,0-8.5-1.8-11.4-4.8l4.5-4.5C87.6,109.6,90,110.7,92.7,110.7z"/>
					<path fill="#414042" d="M92.7,84.8v6.5c-2.7,0-5.1,1.1-6.9,2.9l-4.5-4.5C84.1,86.7,88.2,84.8,92.7,84.8z"/>
					<path fill="#E6E7E8" d="M92.7,68.9v10.3c-4.4,0-8.5-1.8-11.4-4.8l5.4-5.4c0.9,0.2,1.9,0.4,2.8,0.4
						C90.6,69.4,91.7,69.2,92.7,68.9z"/>
					<path fill="#414042" d="M92.7,46.7v3.8c-1-0.3-2.1-0.6-3.2-0.6c-2.7,0-5.1,1.1-6.9,2.9l-1.3-1.3C84.1,48.6,88.2,46.7,92.7,46.7
						z"/>
					<path fill="#E6E7E8" d="M92.7,37v3.2c-4.4,0-8.5-1.8-11.4-4.8l2.3-2.3C85.9,35.5,89.1,37,92.7,37z"/>
					<path fill="#414042" d="M92.7,8v3.2c-3.5,0-6.8,1.4-9.2,3.8l-2.3-2.3C84.1,9.7,88.2,8,92.7,8z"/>
					<path fill="#E6E7E8" d="M86.7,69l-5.4,5.4c-1.2-1.2-2.3-2.8-3.1-4.4c1-2.1,1.7-4.5,1.7-7.1h0.6C81.4,65.8,83.7,68.1,86.7,69z"
						/>
					<path fill="#E6E7E8" d="M85.8,107.8L85.8,107.8l-4.5,4.5c-1.2-1.2-2.3-2.8-3.1-4.4c1-2.1,1.7-4.5,1.7-7.1H83l0,0
						C83,103.6,84.1,106.1,85.8,107.8z"/>
					<path fill="#414042" d="M81.3,89.6l4.5,4.5c-1.8,1.8-2.9,4.2-2.9,6.9h-3.2c0-2.5-0.6-4.9-1.7-7.1
						C78.9,92.3,80.1,90.9,81.3,89.6z"/>
					<path fill="#E6E7E8" d="M83.6,33.2l-2.3,2.3c-1.2-1.2-2.3-2.8-3.1-4.4c1-2.1,1.7-4.5,1.7-7.1C79.8,27.7,81.3,30.9,83.6,33.2z"
						/>
					<path fill="#414042" d="M81.3,12.6l2.3,2.3c-2.3,2.3-3.8,5.5-3.8,9.2c0-2.5-0.6-4.9-1.7-7.1C78.9,15.4,80.1,14,81.3,12.6z"/>
					<path fill="#414042" d="M81.3,51.5l1.3,1.3c-1.8,1.8-2.9,4.2-2.9,6.9c0,1.1,0.2,2.2,0.6,3.2h-0.6c0-2.5-0.6-4.9-1.7-7.1
						C78.9,54.3,80.1,52.7,81.3,51.5z"/>
					<path fill="#E6E7E8" d="M76.5,24.1h3.2c0,2.5-0.6,4.9-1.7,7.1C77.2,29,76.5,26.6,76.5,24.1z"/>
					<path fill="#414042" d="M79.8,24.1h-3.2c0-2.5,0.6-4.9,1.7-7.1C79.2,19.2,79.8,21.6,79.8,24.1z"/>
					<path fill="#E6E7E8" d="M76.5,62.9h3.2c0,2.5-0.6,4.9-1.7,7.1C77.2,67.9,76.5,65.4,76.5,62.9z"/>
					<path fill="#414042" d="M79.8,62.9h-3.2c0-2.5,0.6-4.9,1.7-7.1C79.2,58,79.8,60.3,79.8,62.9z"/>
					<path fill="#E6E7E8" d="M76.5,101h3.2c0,2.5-0.6,4.9-1.7,7.1C77.2,106,76.5,103.5,76.5,101z"/>
					<path fill="#414042" d="M79.8,101h-3.2c0-2.5,0.6-4.9,1.7-7.1C79.2,96.1,79.8,98.4,79.8,101z"/>
					<path fill="#414042" d="M78.2,17.1c-1,2.1-1.7,4.5-1.7,7.1c0-3.5-1.4-6.8-3.8-9.1l2.3-2.3C76.3,14,77.4,15.4,78.2,17.1z"/>
					<path fill="#E6E7E8" d="M76.5,24.1c0,2.5,0.6,4.9,1.7,7.1c-0.8,1.7-1.9,3.1-3.1,4.4l-2.3-2.3C75.1,30.9,76.5,27.7,76.5,24.1z"
						/>
					<path fill="#414042" d="M78.2,55.9c-1,2.1-1.7,4.5-1.7,7.1h-7c0.3-1,0.6-2.1,0.6-3.2c0-1-0.1-1.9-0.4-2.8l5.4-5.4
						C76.3,52.7,77.4,54.3,78.2,55.9z"/>
					<path fill="#E6E7E8" d="M76.5,62.9c0,2.5,0.6,4.9,1.7,7.1c-0.8,1.7-1.9,3.1-3.1,4.4l-7.7-7.7c1-1,1.8-2.2,2.3-3.7h6.9V62.9z"/>
					<path fill="#414042" d="M78.2,94c-1,2.1-1.7,4.5-1.7,7.1h-3.2c0-2.7-1.1-5.1-2.9-6.9l4.5-4.5C76.3,90.9,77.4,92.3,78.2,94z"/>
					<path fill="#E6E7E8" d="M76.5,101c0,2.5,0.6,4.9,1.7,7.1c-0.8,1.7-1.9,3.1-3.1,4.4l-4.5-4.5l0,0c1.8-1.8,2.9-4.2,2.9-6.9l0,0
						h3.1V101z"/>
					<path fill="#414042" d="M75.1,12.6l-2.3,2.3c-2.3-2.3-5.5-3.8-9.2-3.8V8C68.1,8,72.1,9.7,75.1,12.6z"/>
					<path fill="#414042" d="M75.1,51.5l-5.4,5.4c-0.9-3-3.1-5.3-6.1-6.3v-3.8C68.1,46.7,72.1,48.6,75.1,51.5z"/>
					<path fill="#414042" d="M75.1,89.6l-4.5,4.5c-1.8-1.7-4.2-2.8-6.9-2.8v-6.4C68.1,84.8,72.1,86.7,75.1,89.6z"/>
					<path fill="#E6E7E8" d="M72.7,33.2l2.3,2.3c-2.9,2.9-7,4.8-11.4,4.8v-3.2C67.2,37,70.4,35.5,72.7,33.2z"/>
					<path fill="#E6E7E8" d="M67.2,66.5l7.7,7.7c-2.9,2.9-7,4.8-11.4,4.8V68.8C65,68.3,66.2,67.5,67.2,66.5z"/>
					<path fill="#E6E7E8" d="M70.5,107.8l4.5,4.5c-2.9,2.9-7,4.8-11.4,4.8v-6.4C66.3,110.7,68.8,109.6,70.5,107.8z"/>
					<path fill="#E6E7E8" d="M63.7,110.7v6.4c-4.4,0-8.5-1.8-11.4-4.8l4.5-4.5C58.6,109.6,60.9,110.7,63.7,110.7z"/>
					<path fill="#414042" d="M63.7,84.8v6.5c-2.7,0-5.1,1.1-6.9,2.9l0,0l-4.5-4.5C55.1,86.7,59.1,84.8,63.7,84.8z"/>
					<path fill="#E6E7E8" d="M63.7,68.9v10.3c-4.4,0-8.5-1.8-11.4-4.8l5.4-5.4c0.9,0.2,1.9,0.4,2.8,0.4
						C61.6,69.4,62.7,69.2,63.7,68.9z"/>
					<path fill="#414042" d="M63.7,46.7v3.8c-1-0.3-2.1-0.6-3.2-0.6c-2.7,0-5.1,1.1-6.9,2.9l-1.4-1.3C55.1,48.6,59.1,46.7,63.7,46.7
						z"/>
					<path fill="#E6E7E8" d="M63.7,37v3.2c-4.4,0-8.5-1.8-11.4-4.8l2.3-2.3C56.8,35.5,60,37,63.7,37z"/>
					<path fill="#414042" d="M63.7,8v3.2c-3.5,0-6.8,1.4-9.2,3.8l-2.3-2.3C55.1,9.7,59.1,8,63.7,8z"/>
					<path fill="#414042" d="M57.6,69l-5.4,5.4c-2.9-3-4.6-7.1-4.6-11.5h3.8C52.3,65.8,54.6,68.1,57.6,69z"/>
					<path fill="#414042" d="M52.2,89.6l4.5,4.5c-1.8,1.8-2.9,4.2-2.9,6.9h-6.3C47.5,96.5,49.3,92.6,52.2,89.6z"/>
					<path fill="#414042" d="M56.8,107.8l-4.5,4.5c-2.9-2.9-4.8-7-4.8-11.4h6.4l0,0C53.9,103.6,55,106.1,56.8,107.8z"/>
					<path fill="#414042" d="M54.5,33.2l-2.3,2.3c-2.9-2.9-4.8-7-4.8-11.4h3.2C50.7,27.7,52.2,30.9,54.5,33.2z"/>
					<path fill="#414042" d="M52.2,12.6l2.3,2.3c-2.3,2.3-3.8,5.5-3.8,9.2h-3.2C47.5,19.6,49.3,15.6,52.2,12.6z"/>
					<path fill="#414042" d="M52.2,51.5l1.3,1.3c-1.8,1.8-2.9,4.2-2.9,6.9c0,1.1,0.2,2.2,0.6,3.2h-3.7
						C47.5,58.5,49.3,54.4,52.2,51.5z"/>
				</g>
				<g>
					<path fill="none" stroke="#6D6E71" stroke-width="0.1" stroke-miterlimit="10" d="M199.3,24.1c0,3.5-1.4,6.8-3.8,9.2
						c-2.3,2.3-5.5,3.8-9.2,3.8c-3.5,0-6.8-1.4-9.1-3.8s-3.8-5.5-3.8-9.2s1.4-6.8,3.8-9.2c2.3-2.3,5.5-3.8,9.2-3.8
						c3.5,0,6.8,1.4,9.2,3.8C197.8,17.3,199.3,20.5,199.3,24.1z"/>
					<path fill="none" stroke="#6D6E71" stroke-width="0.1" stroke-miterlimit="10" d="M202.5,24.1c0,4.4-1.8,8.5-4.8,11.4
						c-2.9,2.9-7,4.8-11.4,4.8s-8.5-1.8-11.4-4.8c-2.9-2.9-4.8-7-4.8-11.4s1.8-8.5,4.8-11.4c2.9-2.9,7-4.8,11.4-4.8
						s8.5,1.8,11.4,4.8C200.7,15.6,202.5,19.6,202.5,24.1z"/>
					<polyline fill="none" stroke="#6D6E71" stroke-width="0.1" stroke-miterlimit="10" points="186.3,24.1 195.5,33.2 197.8,35.5 
											"/>
					<polyline fill="none" stroke="#6D6E71" stroke-width="0.1" stroke-miterlimit="10" points="174.9,12.6 177.3,14.9 186.3,24.1 
											"/>
					<polyline fill="none" stroke="#6D6E71" stroke-width="0.1" stroke-miterlimit="10" points="186.3,8 186.3,11.2 186.3,24.1 
						186.3,24.1 186.3,37 186.3,40.3 					"/>
					<polyline fill="none" stroke="#6D6E71" stroke-width="0.1" stroke-miterlimit="10" points="197.8,12.6 195.5,14.9 186.3,24.1 
						186.3,24.1 186.3,24.1 177.3,33.2 174.9,35.5 					"/>
					<polyline fill="none" stroke="#6D6E71" stroke-width="0.1" stroke-miterlimit="10" points="202.5,24.1 199.3,24.1 186.3,24.1 
						186.3,24.1 173.5,24.1 170.2,24.1 					"/>
					<path fill="none" stroke="#6D6E71" stroke-width="0.1" stroke-miterlimit="10" d="M138,24.1c0,3.5-1.4,6.8-3.8,9.2
						c-2.3,2.3-5.5,3.8-9.2,3.8c-3.5,0-6.8-1.4-9.1-3.8s-3.8-5.5-3.8-9.2s1.4-6.8,3.8-9.2c2.3-2.3,5.5-3.8,9.2-3.8
						c3.5,0,6.8,1.4,9.2,3.8C136.5,17.3,138,20.5,138,24.1z"/>
					<path fill="none" stroke="#6D6E71" stroke-width="0.1" stroke-miterlimit="10" d="M108.8,24.1c0-4.4,1.8-8.5,4.8-11.4
						c2.9-2.9,7-4.8,11.4-4.8c4.4,0,8.5,1.8,11.4,4.8c1.2,1.2,2.3,2.8,3.1,4.3c1,2.1,1.7,4.5,1.7,7.1s-0.6,4.9-1.7,7.1
						c-0.8,1.7-1.9,3.1-3.1,4.4c-2.9,2.9-7,4.8-11.4,4.8c-4.4,0-8.5-1.8-11.4-4.8C110.6,32.6,108.8,28.6,108.8,24.1"/>
					<polyline fill="none" stroke="#6D6E71" stroke-width="0.1" stroke-miterlimit="10" points="125,24.1 134.2,33.2 136.4,35.5 
											"/>
					<polyline fill="none" stroke="#6D6E71" stroke-width="0.1" stroke-miterlimit="10" points="113.6,12.6 115.8,14.9 125,24.1 
											"/>
					<polyline fill="none" stroke="#6D6E71" stroke-width="0.1" stroke-miterlimit="10" points="125,8 125,11.2 125,24.1 125,24.1 
						125,37 125,40.3 					"/>
					<polyline fill="none" stroke="#6D6E71" stroke-width="0.1" stroke-miterlimit="10" points="136.4,12.6 134.2,14.9 125,24.1 
						125,24.1 125,24.1 115.9,33.2 113.6,35.5 					"/>
					<polyline fill="none" stroke="#6D6E71" stroke-width="0.1" stroke-miterlimit="10" points="138,24.1 125,24.1 125,24.1 
						112,24.1 108.8,24.1 					"/>
					<path fill="none" stroke="#6D6E71" stroke-width="0.1" stroke-miterlimit="10" d="M167,24.1c0,3.5-1.4,6.8-3.8,9.2
						c-2.3,2.3-5.5,3.8-9.2,3.8c-3.5,0-6.8-1.4-9.1-3.8c-2.3-2.3-3.8-5.5-3.8-9.2s1.4-6.8,3.8-9.2c2.3-2.3,5.5-3.8,9.2-3.8
						c3.5,0,6.8,1.4,9.2,3.8C165.5,17.3,167,20.5,167,24.1z"/>
					<path fill="none" stroke="#6D6E71" stroke-width="0.1" stroke-miterlimit="10" d="M170.2,24.1c0,4.4-1.8,8.5-4.8,11.4
						c-2.9,2.9-7,4.8-11.4,4.8c-4.4,0-8.5-1.8-11.4-4.8c-1.2-1.2-2.3-2.8-3.1-4.4c-1-2.1-1.7-4.5-1.7-7.1s0.6-4.9,1.7-7.1
						c0.8-1.7,1.9-3.1,3.1-4.3c2.9-2.9,7-4.8,11.4-4.8c4.4,0,8.5,1.8,11.4,4.8C168.4,15.6,170.2,19.6,170.2,24.1z"/>
					<polyline fill="none" stroke="#6D6E71" stroke-width="0.1" stroke-miterlimit="10" points="154.1,24.1 163.2,33.2 165.5,35.5 
											"/>
					<polyline fill="none" stroke="#6D6E71" stroke-width="0.1" stroke-miterlimit="10" points="142.6,12.6 144.9,14.9 154.1,24.1 
											"/>
					<polyline fill="none" stroke="#6D6E71" stroke-width="0.1" stroke-miterlimit="10" points="154.1,8 154.1,11.2 154.1,24.1 
						154.1,24.1 154.1,37 154.1,40.3 					"/>
					<polyline fill="none" stroke="#6D6E71" stroke-width="0.1" stroke-miterlimit="10" points="165.5,12.6 163.2,14.9 154.1,24.1 
						154.1,24.1 154.1,24.1 144.9,33.2 142.6,35.5 					"/>
					<polyline fill="none" stroke="#6D6E71" stroke-width="0.1" stroke-miterlimit="10" points="170.2,24.1 167,24.1 154.1,24.1 
						154.1,24.1 141.2,24.1 138,24.1 					"/>
					<path fill="none" stroke="#6D6E71" stroke-width="0.1" stroke-miterlimit="10" d="M76.5,24.1c0,3.5-1.4,6.8-3.8,9.2
						c-2.3,2.3-5.5,3.8-9.2,3.8c-3.5,0-6.8-1.4-9.1-3.8s-3.8-5.5-3.8-9.2c0-3.5,1.4-6.8,3.8-9.2c2.3-2.3,5.5-3.8,9.2-3.8
						c3.7,0,6.8,1.4,9.2,3.8C75.1,17.3,76.5,20.5,76.5,24.1z"/>
					<path fill="none" stroke="#6D6E71" stroke-width="0.1" stroke-miterlimit="10" d="M79.8,24.1c0,2.5-0.6,4.9-1.7,7.1
						c-0.8,1.7-1.9,3.1-3.1,4.4c-2.9,2.9-7,4.8-11.4,4.8c-4.4,0-8.5-1.8-11.4-4.8c-2.9-2.9-4.8-7-4.8-11.4s1.8-8.5,4.8-11.4
						c2.9-2.9,7-4.8,11.4-4.8c4.4,0,8.5,1.8,11.4,4.8c1.2,1.2,2.3,2.8,3.1,4.4C79.2,19.2,79.8,21.6,79.8,24.1z"/>
					<polyline fill="none" stroke="#6D6E71" stroke-width="0.1" stroke-miterlimit="10" points="63.7,24.1 72.7,33.2 75.1,35.5 
											"/>
					<polyline fill="none" stroke="#6D6E71" stroke-width="0.1" stroke-miterlimit="10" points="52.2,12.6 54.5,14.9 63.7,24.1 
											"/>
					<polyline fill="none" stroke="#6D6E71" stroke-width="0.1" stroke-miterlimit="10" points="63.7,8 63.7,11.2 63.7,24.1 
						63.7,24.1 63.7,37 63.7,40.2 					"/>
					<polyline fill="none" stroke="#6D6E71" stroke-width="0.1" stroke-miterlimit="10" points="75.1,12.6 72.7,14.9 63.7,24.1 
						63.7,24.1 63.7,24.1 54.5,33.2 52.2,35.5 					"/>
					<polyline fill="none" stroke="#6D6E71" stroke-width="0.1" stroke-miterlimit="10" points="76.5,24.1 63.7,24.1 63.7,24.1 
						50.7,24.1 47.5,24.1 					"/>
					<path fill="none" stroke="#6D6E71" stroke-width="0.1" stroke-miterlimit="10" d="M105.6,24.1c0,3.5-1.4,6.8-3.8,9.2
						c-2.3,2.3-5.5,3.8-9.2,3.8c-3.5,0-6.8-1.4-9.1-3.8s-3.8-5.5-3.8-9.2c0-3.5,1.4-6.8,3.8-9.2c2.3-2.3,5.5-3.8,9.2-3.8
						s6.8,1.4,9.2,3.8C104.2,17.3,105.6,20.5,105.6,24.1z"/>
					<path fill="none" stroke="#6D6E71" stroke-width="0.1" stroke-miterlimit="10" d="M108.8,24.1L108.8,24.1
						c0,4.4-1.8,8.5-4.8,11.4c-2.9,2.9-7,4.8-11.4,4.8c-4.4,0-8.5-1.8-11.4-4.8c-1.2-1.2-2.3-2.8-3.1-4.4c-1-2.1-1.7-4.5-1.7-7.1
						s0.6-4.9,1.7-7.1c0.8-1.7,1.9-3.1,3.1-4.4c2.9-2.9,7-4.8,11.4-4.8c4.4,0,8.5,1.8,11.4,4.8C107,15.5,108.8,19.6,108.8,24.1z"/>
					<polyline fill="none" stroke="#6D6E71" stroke-width="0.1" stroke-miterlimit="10" points="92.7,24.1 101.9,33.2 104.1,35.5 
											"/>
					<polyline fill="none" stroke="#6D6E71" stroke-width="0.1" stroke-miterlimit="10" points="81.3,12.6 83.6,14.9 92.7,24.1 
											"/>
					<polyline fill="none" stroke="#6D6E71" stroke-width="0.1" stroke-miterlimit="10" points="92.7,8 92.7,11.2 92.7,24.1 
						92.7,24.1 92.7,37 92.7,40.2 					"/>
					<polyline fill="none" stroke="#6D6E71" stroke-width="0.1" stroke-miterlimit="10" points="104.1,12.6 101.9,14.9 92.7,24.1 
						92.7,24.1 92.7,24.1 83.6,33.2 81.3,35.5 					"/>
					<polyline fill="none" stroke="#6D6E71" stroke-width="0.1" stroke-miterlimit="10" points="108.8,24.1 105.6,24.1 92.7,24.1 
						92.7,24.1 79.8,24.1 76.5,24.1 					"/>
					<path fill="none" stroke="#6D6E71" stroke-width="0.1" stroke-miterlimit="10" d="M192.4,56.9c0.2,0.9,0.4,1.9,0.4,2.8
						c0,1.1-0.2,2.2-0.6,3.2c-0.4,1.3-1.2,2.7-2.3,3.7c-1,1-2.2,1.8-3.7,2.3c-1,0.3-2.1,0.6-3.2,0.6c-1,0-1.9-0.1-2.8-0.4
						c-3-0.9-5.3-3.1-6.3-6.1c-0.3-1-0.6-2.1-0.6-3.2c0-2.7,1.1-5.1,2.9-6.9c1.8-1.8,4.2-2.9,6.9-2.9c1.1,0,2.2,0.2,3.2,0.6
						C189.2,51.6,191.5,53.9,192.4,56.9z"/>
					<path fill="none" stroke="#6D6E71" stroke-width="0.1" stroke-miterlimit="10" d="M170.2,62.9c0-4.4,1.8-8.5,4.8-11.4
						c2.9-2.9,7-4.8,11.4-4.8s8.5,1.8,11.4,4.8c2.9,2.9,4.8,7,4.8,11.4s-1.8,8.5-4.8,11.4c-2.9,2.9-7,4.8-11.4,4.8
						s-8.5-1.8-11.4-4.8C172.1,71.4,170.2,67.4,170.2,62.9"/>
					<polyline fill="none" stroke="#6D6E71" stroke-width="0.1" stroke-miterlimit="10" points="186.3,62.9 190,66.5 197.8,74.3 
											"/>
					<polyline fill="none" stroke="#6D6E71" stroke-width="0.1" stroke-miterlimit="10" points="174.9,51.5 176.3,52.8 186.3,62.9 
											"/>
					<polyline fill="none" stroke="#6D6E71" stroke-width="0.1" stroke-miterlimit="10" points="186.3,46.7 186.3,50.5 186.3,62.9 
						186.3,62.9 186.3,68.9 186.3,79.1 					"/>
					<polyline fill="none" stroke="#6D6E71" stroke-width="0.1" stroke-miterlimit="10" points="197.8,51.5 192.4,56.9 186.3,62.9 
						186.3,62.9 186.3,62.9 180.4,69 174.9,74.3 					"/>
					<polyline fill="none" stroke="#6D6E71" stroke-width="0.1" stroke-miterlimit="10" points="202.5,62.9 192.3,62.9 186.3,62.9 
						186.3,62.9 174,62.9 170.2,62.9 					"/>
					<path fill="none" stroke="#6D6E71" stroke-width="0.1" stroke-miterlimit="10" d="M131.1,56.9c0.2,0.9,0.4,1.9,0.4,2.8
						c0,1.1-0.2,2.2-0.6,3.2c-0.4,1.3-1.2,2.7-2.3,3.7c-1.1,1-2.2,1.8-3.7,2.3c-1,0.3-2.1,0.6-3.2,0.6c-1,0-1.9-0.1-2.8-0.4
						c-3-0.9-5.3-3.1-6.3-6.1c-0.3-1-0.6-2.1-0.6-3.2c0-2.7,1.1-5.1,2.9-6.9c1.8-1.8,4.2-2.9,6.9-2.9c1.1,0,2.2,0.2,3.2,0.6
						C127.9,51.6,130.2,53.9,131.1,56.9z"/>
					<path fill="none" stroke="#6D6E71" stroke-width="0.1" stroke-miterlimit="10" d="M141.2,62.9c0,2.5-0.6,4.9-1.7,7.1
						c-0.8,1.7-1.9,3.1-3.1,4.4c-2.9,2.9-7,4.8-11.4,4.8c-4.4,0-8.5-1.8-11.4-4.8c-2.9-2.9-4.8-7-4.8-11.4s1.8-8.5,4.8-11.4
						c2.9-2.9,7-4.8,11.4-4.8c4.4,0,8.5,1.8,11.4,4.8c1.2,1.2,2.3,2.8,3.1,4.4C140.6,58,141.2,60.3,141.2,62.9z"/>
					<polyline fill="none" stroke="#6D6E71" stroke-width="0.1" stroke-miterlimit="10" points="125,62.9 128.7,66.5 136.4,74.3 
											"/>
					<polyline fill="none" stroke="#6D6E71" stroke-width="0.1" stroke-miterlimit="10" points="113.6,51.5 114.9,52.8 125,62.9 
											"/>
					<polyline fill="none" stroke="#6D6E71" stroke-width="0.1" stroke-miterlimit="10" points="125,46.7 125,50.5 125,62.9 
						125,62.9 125,68.9 125,79.1 					"/>
					<polyline fill="none" stroke="#6D6E71" stroke-width="0.1" stroke-miterlimit="10" points="136.4,51.5 131.1,56.9 125,62.9 
						125,62.9 125,62.9 118.9,69 113.6,74.3 					"/>
					<polyline fill="none" stroke="#6D6E71" stroke-width="0.1" stroke-miterlimit="10" points="138,62.9 130.9,62.9 125,62.9 
						125,62.9 112.6,62.9 108.8,62.9 					"/>
					<path fill="none" stroke="#6D6E71" stroke-width="0.1" stroke-miterlimit="10" d="M160.1,56.9c0.2,0.9,0.4,1.9,0.4,2.8
						c0,1.1-0.2,2.2-0.6,3.2c-0.4,1.3-1.2,2.7-2.3,3.7c-1,1-2.2,1.8-3.7,2.3c-1,0.3-2.1,0.6-3.2,0.6c-1,0-1.9-0.1-2.8-0.4
						c-3-0.9-5.3-3.1-6.3-6.1c-0.3-1-0.6-2.1-0.6-3.2c0-2.7,1.1-5.1,2.9-6.9c1.8-1.8,4.2-2.9,6.9-2.9c1.1,0,2.2,0.2,3.2,0.6
						C157,51.6,159.2,53.9,160.1,56.9z"/>
					<path fill="none" stroke="#6D6E71" stroke-width="0.1" stroke-miterlimit="10" d="M170.2,62.9L170.2,62.9
						c0,4.4-1.8,8.5-4.8,11.4c-2.9,2.9-7,4.8-11.4,4.8c-4.4,0-8.5-1.8-11.4-4.8c-1.2-1.2-2.3-2.8-3.1-4.4c-1-2.1-1.7-4.5-1.7-7.1
						c0-2.5,0.6-4.9,1.7-7.1c0.8-1.7,1.9-3.1,3.1-4.4c2.9-2.9,7-4.8,11.4-4.8c4.4,0,8.5,1.8,11.4,4.8
						C168.4,54.4,170.2,58.5,170.2,62.9z"/>
					<polyline fill="none" stroke="#6D6E71" stroke-width="0.1" stroke-miterlimit="10" points="154.1,62.9 157.7,66.5 165.5,74.3 
											"/>
					<polyline fill="none" stroke="#6D6E71" stroke-width="0.1" stroke-miterlimit="10" points="142.6,51.5 144,52.8 154.1,62.9 
											"/>
					<polyline fill="none" stroke="#6D6E71" stroke-width="0.1" stroke-miterlimit="10" points="154.1,46.7 154.1,50.5 154.1,62.9 
						154.1,62.9 154.1,68.9 154.1,79.1 					"/>
					<polyline fill="none" stroke="#6D6E71" stroke-width="0.1" stroke-miterlimit="10" points="165.5,51.5 160.1,56.9 154.1,62.9 
						154.1,62.9 154.1,62.9 148,69 142.6,74.3 					"/>
					<polyline fill="none" stroke="#6D6E71" stroke-width="0.1" stroke-miterlimit="10" points="170.2,62.9 160,62.9 154.1,62.9 
						154.1,62.9 141.7,62.9 141.2,62.9 138,62.9 					"/>
					<path fill="none" stroke="#6D6E71" stroke-width="0.1" stroke-miterlimit="10" d="M69.6,56.9c0.2,0.9,0.4,1.9,0.4,2.8
						c0,1.1-0.2,2.2-0.6,3.2c-0.4,1.3-1.2,2.7-2.3,3.7c-1,1-2.2,1.8-3.7,2.3c-1,0.3-2.1,0.6-3.2,0.6c-1,0-1.9-0.1-2.8-0.4
						c-3-0.9-5.3-3.1-6.3-6.1c-0.3-1-0.6-2.1-0.6-3.2c0-2.7,1.1-5.1,2.9-6.9c1.8-1.8,4.2-2.9,6.9-2.9c1.1,0,2.2,0.2,3.2,0.6
						C66.5,51.6,68.8,53.9,69.6,56.9z"/>
					<path fill="none" stroke="#6D6E71" stroke-width="0.1" stroke-miterlimit="10" d="M79.8,62.9c0,2.5-0.6,4.9-1.7,7.1
						c-0.8,1.7-1.9,3.1-3.1,4.4c-2.9,2.9-7,4.8-11.4,4.8c-4.4,0-8.5-1.8-11.4-4.8c-3-3-4.8-7.1-4.8-11.5s1.8-8.5,4.8-11.4
						c2.9-2.9,7-4.8,11.4-4.8s8.5,1.8,11.4,4.8c1.2,1.2,2.3,2.8,3.1,4.4C79.2,58,79.8,60.3,79.8,62.9z"/>
					<polyline fill="none" stroke="#6D6E71" stroke-width="0.1" stroke-miterlimit="10" points="63.7,62.9 67.2,66.5 75.1,74.3 
											"/>
					<polyline fill="none" stroke="#6D6E71" stroke-width="0.1" stroke-miterlimit="10" points="52.2,51.5 53.6,52.8 63.7,62.9 
											"/>
					<polyline fill="none" stroke="#6D6E71" stroke-width="0.1" stroke-miterlimit="10" points="63.7,46.7 63.7,50.5 63.7,62.9 
						63.7,62.9 63.7,68.9 63.7,79.1 					"/>
					<polyline fill="none" stroke="#6D6E71" stroke-width="0.1" stroke-miterlimit="10" points="75.1,51.5 69.6,56.9 63.7,62.9 
						63.7,62.9 63.7,62.9 57.6,69 52.2,74.3 					"/>
					<polyline fill="none" stroke="#6D6E71" stroke-width="0.1" stroke-miterlimit="10" points="76.5,62.9 69.5,62.9 63.7,62.9 
						63.7,62.9 51.3,62.9 47.5,62.9 					"/>
					<path fill="none" stroke="#6D6E71" stroke-width="0.1" stroke-miterlimit="10" d="M98.8,56.9c0.2,0.9,0.4,1.9,0.4,2.8
						c0,1.1-0.2,2.2-0.6,3.2c-0.4,1.3-1.2,2.7-2.3,3.7c-1,1-2.2,1.8-3.7,2.3c-1,0.3-2.1,0.6-3.2,0.6c-1,0-1.9-0.1-2.8-0.4
						c-3-0.9-5.3-3.1-6.3-6.1c-0.3-1-0.6-2.1-0.6-3.2c0-2.7,1.1-5.1,2.9-6.9c1.8-1.8,4.2-2.9,6.9-2.9c1.1,0,2.2,0.2,3.2,0.6
						C95.6,51.6,97.9,53.9,98.8,56.9z"/>
					<path fill="none" stroke="#6D6E71" stroke-width="0.1" stroke-miterlimit="10" d="M108.8,62.9c0,4.4-1.8,8.5-4.8,11.4
						c-2.9,2.9-7,4.8-11.4,4.8c-4.4,0-8.5-1.8-11.4-4.8c-1.2-1.2-2.3-2.8-3.1-4.4c-1-2.1-1.7-4.5-1.7-7.1c0-2.5,0.6-4.9,1.7-7.1
						c0.8-1.7,1.9-3.1,3.1-4.4c2.9-2.9,7-4.8,11.4-4.8c4.4,0,8.5,1.8,11.4,4.8C107.1,54.4,108.8,58.5,108.8,62.9z"/>
					<polyline fill="none" stroke="#6D6E71" stroke-width="0.1" stroke-miterlimit="10" points="92.7,62.9 96.3,66.5 104.1,74.3 
											"/>
					<polyline fill="none" stroke="#6D6E71" stroke-width="0.1" stroke-miterlimit="10" points="81.3,51.5 82.6,52.8 92.7,62.9 
											"/>
					<polyline fill="none" stroke="#6D6E71" stroke-width="0.1" stroke-miterlimit="10" points="92.7,46.7 92.7,50.5 92.7,62.9 
						92.7,62.9 92.7,68.9 92.7,79.1 					"/>
					<polyline fill="none" stroke="#6D6E71" stroke-width="0.1" stroke-miterlimit="10" points="104.1,51.5 98.8,56.9 92.7,62.9 
						92.7,62.9 92.7,62.9 86.7,69 81.3,74.3 					"/>
					<polyline fill="none" stroke="#6D6E71" stroke-width="0.1" stroke-miterlimit="10" points="108.8,62.9 98.7,62.9 92.7,62.9 
						92.7,62.9 80.4,62.9 79.8,62.9 76.5,62.9 					"/>
					<path fill="none" stroke="#6D6E71" stroke-width="0.1" stroke-miterlimit="10" d="M193.2,94.1c1.8,1.8,2.9,4.2,2.9,6.9l0,0
						c0,2.7-1.1,5.1-2.9,6.9c-1.8,1.8-4.2,2.9-6.9,2.9s-5.1-1.1-6.9-2.9c-1.8-1.8-2.9-4.2-2.9-6.9l0,0c0-2.7,1.1-5.1,2.9-6.9
						c1.8-1.8,4.2-2.9,6.9-2.9C189.1,91.3,191.4,92.4,193.2,94.1z"/>
					<path fill="none" stroke="#6D6E71" stroke-width="0.1" stroke-miterlimit="10" d="M170.2,101c0-4.4,1.8-8.5,4.8-11.4
						c2.9-2.9,7-4.8,11.4-4.8s8.5,1.8,11.4,4.8c2.9,2.9,4.8,7,4.8,11.4s-1.8,8.5-4.8,11.4c-2.9,2.9-7,4.8-11.4,4.8
						s-8.5-1.8-11.4-4.8C172.1,109.5,170.2,105.5,170.2,101"/>
					<polyline fill="none" stroke="#6D6E71" stroke-width="0.1" stroke-miterlimit="10" points="186.3,101 193.2,107.8 197.8,112.4 
											"/>
					<polyline fill="none" stroke="#6D6E71" stroke-width="0.1" stroke-miterlimit="10" points="174.9,89.6 179.5,94.1 186.3,101 
											"/>
					<polyline fill="none" stroke="#6D6E71" stroke-width="0.1" stroke-miterlimit="10" points="186.3,84.8 186.3,91.3 186.3,101 
						186.3,101 186.3,110.7 186.3,117.1 					"/>
					<polyline fill="none" stroke="#6D6E71" stroke-width="0.1" stroke-miterlimit="10" points="197.8,89.6 193.2,94.1 186.3,101 
						186.3,101 186.3,101 179.6,107.8 174.9,112.4 					"/>
					<polyline fill="none" stroke="#6D6E71" stroke-width="0.1" stroke-miterlimit="10" points="202.5,101 196.1,101 186.3,101 
						186.3,101 176.7,101 170.2,101 					"/>
					<path fill="none" stroke="#6D6E71" stroke-width="0.1" stroke-miterlimit="10" d="M118.1,94.1c1.8-1.8,4.2-2.9,6.9-2.9
						c2.7,0,5.1,1.1,6.9,2.9s2.9,4.2,2.9,6.9l0,0c0,2.7-1.1,5.1-2.9,6.9"/>
					<path fill="none" stroke="#6D6E71" stroke-width="0.1" stroke-miterlimit="10" d="M131.9,107.8c-1.8,1.8-4.2,2.9-6.9,2.9
						c-2.7,0-5.1-1.1-6.9-2.9s-2.9-4.2-2.9-6.9l0,0c0-2.7,1.1-5.1,2.9-6.9"/>
					<path fill="none" stroke="#6D6E71" stroke-width="0.1" stroke-miterlimit="10" d="M141.2,101c0,2.5-0.6,4.9-1.7,7.1
						c-0.8,1.7-1.9,3.1-3.1,4.4c-2.9,2.9-7,4.8-11.4,4.8c-4.4,0-8.5-1.8-11.4-4.8c-2.9-2.9-4.8-7-4.8-11.4c0-4.4,1.8-8.5,4.8-11.4
						c2.9-2.9,7-4.8,11.4-4.8c4.4,0,8.5,1.8,11.4,4.8c1.2,1.2,2.3,2.8,3.1,4.3C140.6,96.1,141.2,98.4,141.2,101z"/>
					<polyline fill="none" stroke="#6D6E71" stroke-width="0.1" stroke-miterlimit="10" points="125,101 131.9,107.8 131.9,107.8 
						136.4,112.4 					"/>
					<polyline fill="none" stroke="#6D6E71" stroke-width="0.1" stroke-miterlimit="10" points="113.6,89.6 118.1,94.1 118.1,94.1 
						125,101 					"/>
					<polyline fill="none" stroke="#6D6E71" stroke-width="0.1" stroke-miterlimit="10" points="125,84.8 125,91.3 125,101 125,101 
						125,110.7 125,117.1 					"/>
					<polyline fill="none" stroke="#6D6E71" stroke-width="0.1" stroke-miterlimit="10" points="136.4,89.6 131.9,94.1 125,101 
						125,101 125,101 118.1,107.8 113.6,112.4 					"/>
					<polyline fill="none" stroke="#6D6E71" stroke-width="0.1" stroke-miterlimit="10" points="138,101 134.7,101 125,101 125,101 
						115.3,101 108.8,101 					"/>
					<path fill="none" stroke="#6D6E71" stroke-width="0.1" stroke-miterlimit="10" d="M147.3,94.1c1.8-1.8,4.2-2.9,6.9-2.9
						c2.7,0,5.1,1.1,6.9,2.9s2.9,4.2,2.9,6.9l0,0c0,2.7-1.1,5.1-2.9,6.9"/>
					<path fill="none" stroke="#6D6E71" stroke-width="0.1" stroke-miterlimit="10" d="M160.9,107.8c-1.8,1.8-4.2,2.9-6.9,2.9
						c-2.7,0-5.1-1.1-6.9-2.9c-1.8-1.8-2.9-4.2-2.9-6.9l0,0c0-2.7,1.1-5.1,2.9-6.9"/>
					<path fill="none" stroke="#6D6E71" stroke-width="0.1" stroke-miterlimit="10" d="M170.2,101L170.2,101c0,4.4-1.8,8.5-4.8,11.4
						c-2.9,2.9-7,4.8-11.4,4.8c-4.4,0-8.5-1.8-11.4-4.8c-1.2-1.2-2.3-2.8-3.1-4.4c-1-2.1-1.7-4.5-1.7-7.1s0.6-4.9,1.7-7.1
						c0.8-1.7,1.9-3.1,3.1-4.3c2.9-2.9,7-4.8,11.4-4.8c4.4,0,8.5,1.8,11.4,4.8C168.4,92.6,170.2,96.5,170.2,101z"/>
					<polyline fill="none" stroke="#6D6E71" stroke-width="0.1" stroke-miterlimit="10" points="154.1,101 160.9,107.8 160.9,107.8 
						165.5,112.4 					"/>
					<polyline fill="none" stroke="#6D6E71" stroke-width="0.1" stroke-miterlimit="10" points="142.6,89.6 147.3,94.1 147.3,94.1 
						154.1,101 					"/>
					<polyline fill="none" stroke="#6D6E71" stroke-width="0.1" stroke-miterlimit="10" points="154.1,84.8 154.1,91.3 154.1,101 
						154.1,101 154.1,110.7 154.1,117.1 					"/>
					<polyline fill="none" stroke="#6D6E71" stroke-width="0.1" stroke-miterlimit="10" points="165.5,89.6 160.9,94.1 154.1,101 
						154.1,101 154.1,101 147.3,107.8 142.6,112.4 					"/>
					<polyline fill="none" stroke="#6D6E71" stroke-width="0.1" stroke-miterlimit="10" points="170.2,101 163.7,101 154.1,101 
						154.1,101 144.4,101 141.2,101 138,101 					"/>
					<path fill="none" stroke="#6D6E71" stroke-width="0.1" stroke-miterlimit="10" d="M56.8,94.1c1.8-1.7,4.1-2.8,6.9-2.8
						c2.8,0,5.1,1.1,6.9,2.9s2.9,4.2,2.9,6.9l0,0c0,2.7-1.1,5.1-2.9,6.9"/>
					<path fill="none" stroke="#6D6E71" stroke-width="0.1" stroke-miterlimit="10" d="M70.5,107.8c-1.8,1.8-4.2,2.9-6.9,2.9
						c-2.7,0-5.1-1.1-6.9-2.9c-1.8-1.8-2.9-4.2-2.9-6.9l0,0c0-2.7,1.1-5.1,2.9-6.9"/>
					<path fill="none" stroke="#6D6E71" stroke-width="0.1" stroke-miterlimit="10" d="M79.8,101c0,2.5-0.6,4.9-1.7,7.1
						c-0.8,1.7-1.9,3.1-3.1,4.4c-2.9,2.9-7,4.8-11.4,4.8c-4.4,0-8.5-1.8-11.4-4.8c-2.9-2.9-4.8-7-4.8-11.4c0-4.4,1.8-8.5,4.8-11.4
						c2.9-2.9,7-4.8,11.4-4.8c4.4,0,8.5,1.8,11.4,4.8c1.2,1.2,2.3,2.8,3.1,4.3C79.2,96.1,79.8,98.4,79.8,101z"/>
					<polyline fill="none" stroke="#6D6E71" stroke-width="0.1" stroke-miterlimit="10" points="63.7,101 70.5,107.8 70.5,107.8 
						75.1,112.4 					"/>
					<polyline fill="none" stroke="#6D6E71" stroke-width="0.1" stroke-miterlimit="10" points="52.2,89.6 56.8,94.1 56.8,94.1 
						63.7,101 					"/>
					<polyline fill="none" stroke="#6D6E71" stroke-width="0.1" stroke-miterlimit="10" points="63.7,84.8 63.7,91.3 63.7,101 
						63.7,101 63.7,110.7 63.7,117.1 					"/>
					<polyline fill="none" stroke="#6D6E71" stroke-width="0.1" stroke-miterlimit="10" points="75.1,89.6 70.5,94.1 63.7,101 
						63.7,101 63.7,101 56.8,107.8 52.2,112.4 					"/>
					<polyline fill="none" stroke="#6D6E71" stroke-width="0.1" stroke-miterlimit="10" points="76.5,101 73.3,101 63.7,101 
						63.7,101 53.9,101 47.5,101 					"/>
					<path fill="none" stroke="#6D6E71" stroke-width="0.1" stroke-miterlimit="10" d="M99.5,94.1c1.8,1.8,2.9,4.2,2.9,6.9l0,0
						c0,2.7-1.1,5.1-2.9,6.9s-4.2,2.9-6.9,2.9l0,0c-2.7,0-5.1-1.1-6.9-2.9"/>
					<path fill="none" stroke="#6D6E71" stroke-width="0.1" stroke-miterlimit="10" d="M85.8,107.8c-1.8-1.8-2.9-4.2-2.9-6.9l0,0
						c0-2.7,1.1-5.1,2.9-6.9s4.2-2.9,6.9-2.9l0,0c2.7,0,5.1,1.1,6.9,2.9"/>
					<path fill="none" stroke="#6D6E71" stroke-width="0.1" stroke-miterlimit="10" d="M108.8,101c0,4.4-1.8,8.5-4.8,11.4
						c-3,2.9-7,4.8-11.4,4.8c-4.4,0-8.5-1.8-11.4-4.8c-1.2-1.2-2.3-2.8-3.1-4.4c-1-2.1-1.7-4.5-1.7-7.1s0.6-4.9,1.7-7.1
						c0.8-1.7,1.9-3.1,3.1-4.3c2.9-2.9,7-4.8,11.4-4.8c4.4,0,8.5,1.8,11.4,4.8C107.1,92.6,108.8,96.5,108.8,101z"/>
					<polyline fill="none" stroke="#6D6E71" stroke-width="0.1" stroke-miterlimit="10" points="92.7,101 99.5,107.8 104.1,112.4 
											"/>
					<polyline fill="none" stroke="#6D6E71" stroke-width="0.1" stroke-miterlimit="10" points="81.3,89.6 85.8,94.1 92.7,101 					
						"/>
					<polyline fill="none" stroke="#6D6E71" stroke-width="0.1" stroke-miterlimit="10" points="92.7,84.8 92.7,91.3 92.7,101 
						92.7,101 92.7,110.7 92.7,117.1 					"/>
					<polyline fill="none" stroke="#6D6E71" stroke-width="0.1" stroke-miterlimit="10" points="104.1,89.6 99.5,94.1 99.5,94.1 
						92.7,101 92.7,101 92.7,101 85.8,107.8 85.8,107.8 81.3,112.4 					"/>
					<polyline fill="none" stroke="#6D6E71" stroke-width="0.1" stroke-miterlimit="10" points="108.8,101 102.4,101 92.7,101 
						92.7,101 83,101 79.8,101 76.5,101 					"/>
				</g>
			</g>
		</g>
	</g>
</g>
<g id="dim">
</g>
</svg>
