<?xml version="1.0" encoding="utf-8"?>
<!-- Generator: Adobe Illustrator 23.1.1, SVG Export Plug-In . SVG Version: 6.00 Build 0)  -->
<svg version="1.1" xmlns="http://www.w3.org/2000/svg" xmlns:xlink="http://www.w3.org/1999/xlink" x="0px" y="0px"
	 viewBox="0 0 180 180" style="enable-background:new 0 0 180 180;" xml:space="preserve">
<style type="text/css">
	.st0{opacity:0.9;}
	.st1{fill:#FFFFFF;}
</style>
<g id="Layer_2">
	<path d="M168.3,168c0,0.1,0,0.1,0,0.1c0,0.5,0,1.1,0,1.6c0,0.2-0.1,0.4-0.2,0.5c-0.2,0.2-0.4,0.3-0.6,0.2c-0.2,0-0.3-0.1-0.5-0.2
		c-0.7-0.5-1.4-0.9-2.1-1.4c-1-0.7-2-1.4-3-2.1c-0.1-0.1-0.2-0.2-0.3-0.3c-0.4-0.4-0.3-1.1,0.1-1.5c0.5-0.3,0.9-0.7,1.4-1
		c1.2-0.8,2.4-1.6,3.6-2.5c0.2-0.1,0.4-0.3,0.7-0.3c0.4-0.1,0.8,0.2,0.9,0.6c0,0.2,0,0.4,0,0.6c0,0.4,0,0.8,0,1.2c0,0,0,0.1,0,0.1
		c0.2,0,0.3,0,0.5,0.1c1.1,0.1,2.1,0.4,3.1,0.9c1.5,0.8,2.7,1.8,3.6,3.2c0.5,0.8,0.8,1.7,1,2.6c0.2,0.8,0.2,1.7,0.2,2.5
		c0,0.8-0.2,1.6-0.4,2.4c-0.1,0.3-0.2,0.6-0.4,0.8c0,0-0.1,0.1-0.1,0.1c-0.2,0.2-0.5,0.1-0.6-0.2c0-0.2-0.1-0.4-0.1-0.5
		c-0.2-1.3-0.5-2.6-1-3.7c-0.3-0.6-0.6-1.2-1.1-1.6c-0.4-0.4-0.9-0.8-1.4-1.1C170.6,168.7,169.5,168.3,168.3,168
		C168.4,168,168.3,168,168.3,168z"/>
	<path d="M90,180L90,180c-49.7,0-90-40.3-90-90v0C0,40.3,40.3,0,90,0h0c49.7,0,90,40.3,90,90v0C180,139.7,139.7,180,90,180z"/>
</g>
<g id="Layer_1">
	<g class="st0">
		<path class="st1" d="M147.5,45.7c-3.4-0.5-7.5-1-11.8-1.3c-4.2-0.3-8.6-0.3-14.5,0c-5.5,1.6-14.8,5.4-22.8,10.6
			c-8,5.1-14.9,11.6-20.9,20c-6,8.5-11.2,19-19.4,40.1c-1.1-6.5-2-10.4-3-13.7c4.9-12.9,8.7-21.1,12.7-27.9S76,61.4,81.4,56.2
			c5.3-5.2,11.8-10.4,16.7-13.3c-19.6-2.1-33.6,0.8-46.7,5.4C38.3,53,26.1,59.4,10,72.2c17,8.4,25.1,16.4,30.5,24s8,15,9.7,22.9
			s2.3,16.5,0.8,33.1c8.9-7.9,13-18.4,16.5-28.5C71,113.6,74,103.9,79,93.8c5.1-10.1,12.2-20.6,23.7-29.2
			c11.5-8.5,27.4-15.1,53.3-17.3C153.5,46.7,150.9,46.2,147.5,45.7z M50.3,88.7c-0.5-1.1-1.1-2.3-1.7-3.5C46.2,80.6,43.2,75.5,37,68
			c7.1-4.1,18.8-9.2,29.4-11.4c-5.2,7.6-7.6,12.1-9.7,16.4C54.7,77.2,53.1,81.4,50.3,88.7z"/>
	</g>
	<g>
		<path class="st1" d="M86.9,112.3h1.9l2.8,8h-1.8l-0.5-1.6h-2.9l-0.5,1.6h-1.7L86.9,112.3z M86.8,117.2h2l-1-3.1L86.8,117.2z"/>
		<path class="st1" d="M95.8,114.4h1.7l-2.1,5.9h-1.6l-2.1-5.9h1.7l1.2,4.4L95.8,114.4z"/>
		<path class="st1" d="M102.2,114.5c0.4,0.2,0.8,0.5,1,0.9s0.4,0.8,0.5,1.2c0,0.3,0.1,0.7,0.1,1.2h-4.3c0,0.6,0.2,1,0.6,1.2
			c0.2,0.1,0.5,0.2,0.9,0.2s0.6-0.1,0.9-0.3c0.1-0.1,0.2-0.2,0.3-0.4h1.6c0,0.4-0.2,0.7-0.6,1.1c-0.5,0.6-1.3,0.9-2.2,0.9
			c-0.8,0-1.5-0.2-2.1-0.7s-0.9-1.3-0.9-2.4c0-1,0.3-1.8,0.8-2.4c0.5-0.5,1.2-0.8,2.1-0.8C101.3,114.2,101.7,114.3,102.2,114.5z
			 M99.8,115.8c-0.2,0.2-0.4,0.5-0.4,0.9h2.7c0-0.4-0.2-0.7-0.4-0.9c-0.2-0.2-0.6-0.3-0.9-0.3C100.4,115.5,100.1,115.6,99.8,115.8z"
			/>
		<path class="st1" d="M109.2,114.7c0.4,0.3,0.6,0.9,0.6,1.6v4h-1.6v-3.6c0-0.3,0-0.5-0.1-0.7c-0.2-0.3-0.4-0.5-0.9-0.5
			s-0.9,0.2-1.1,0.7c-0.1,0.2-0.2,0.5-0.2,0.9v3.2h-1.5v-5.9h1.5v0.9c0.2-0.3,0.4-0.5,0.6-0.7c0.3-0.2,0.7-0.4,1.2-0.4
			C108.4,114.2,108.9,114.4,109.2,114.7z"/>
		<path class="st1" d="M114.5,112.3h1.7v6.6h4v1.4h-5.7V112.3z"/>
		<path class="st1" d="M125,114.5c0.4,0.2,0.8,0.5,1,0.9s0.4,0.8,0.5,1.2c0,0.3,0.1,0.7,0.1,1.2h-4.3c0,0.6,0.2,1,0.6,1.2
			c0.2,0.1,0.5,0.2,0.9,0.2s0.6-0.1,0.9-0.3c0.1-0.1,0.2-0.2,0.3-0.4h1.6c0,0.4-0.2,0.7-0.6,1.1c-0.5,0.6-1.3,0.9-2.2,0.9
			c-0.8,0-1.5-0.2-2.1-0.7s-0.9-1.3-0.9-2.4c0-1,0.3-1.8,0.8-2.4s1.2-0.8,2.1-0.8C124.1,114.2,124.6,114.3,125,114.5z M122.7,115.8
			c-0.2,0.2-0.4,0.5-0.4,0.9h2.7c0-0.4-0.2-0.7-0.4-0.9c-0.2-0.2-0.6-0.3-0.9-0.3C123.2,115.5,122.9,115.6,122.7,115.8z"/>
		<path class="st1" d="M130,118.9l4.1-5.2h-4v-1.4h6.1v1.3l-4.1,5.2h4.2v1.4H130V118.9z"/>
		<path class="st1" d="M141.4,114.4c0.3,0.1,0.5,0.3,0.7,0.6c0.2,0.2,0.3,0.4,0.3,0.7c0,0.2,0.1,0.6,0.1,1.1v3.5H141v-3.6
			c0-0.3-0.1-0.6-0.2-0.8c-0.1-0.3-0.4-0.4-0.8-0.4c-0.4,0-0.7,0.1-0.9,0.4s-0.3,0.7-0.3,1.2v3.2h-1.5v-8h1.5v2.8
			c0.2-0.3,0.5-0.6,0.8-0.7s0.6-0.2,0.9-0.2C140.8,114.2,141.2,114.3,141.4,114.4z"/>
		<path class="st1" d="M148.9,119.5c-0.5,0.6-1.3,0.9-2.3,0.9s-1.8-0.3-2.3-0.9s-0.7-1.4-0.7-2.2c0-0.9,0.2-1.6,0.7-2.2
			s1.3-0.9,2.3-0.9s1.8,0.3,2.3,0.9s0.7,1.4,0.7,2.2C149.7,118.2,149.4,118.9,148.9,119.5z M147.7,118.7c0.2-0.3,0.4-0.8,0.4-1.4
			s-0.1-1-0.4-1.4c-0.2-0.3-0.6-0.5-1-0.5c-0.5,0-0.8,0.2-1,0.5s-0.4,0.8-0.4,1.4s0.1,1,0.4,1.4c0.2,0.3,0.6,0.5,1,0.5
			C147.1,119.2,147.4,119,147.7,118.7z"/>
		<path class="st1" d="M152.3,114.4v3.6c0,0.3,0,0.6,0.1,0.8c0.1,0.3,0.4,0.5,0.8,0.5c0.5,0,0.9-0.2,1.1-0.6
			c0.1-0.2,0.2-0.5,0.2-0.9v-3.2h1.6v5.9h-1.5v-0.8c0,0-0.1,0.1-0.1,0.2c-0.1,0.1-0.1,0.2-0.2,0.2c-0.2,0.2-0.5,0.4-0.7,0.4
			c-0.2,0.1-0.5,0.1-0.8,0.1c-0.9,0-1.5-0.3-1.8-0.9c-0.2-0.3-0.3-0.9-0.3-1.5v-3.6h1.6V114.4z"/>
	</g>
</g>
</svg>
